<svg width="18" height="18" viewBox="0 0 18 18" fill="none" xmlns="http://www.w3.org/2000/svg">
<g clip-path="url(#clip0_6167_13609)">
<mask id="mask0_6167_13609" style="mask-type:alpha" maskUnits="userSpaceOnUse" x="0" y="0" width="20" height="20">
<rect width="20" height="20" fill="#D9D9D9"/>
</mask>
<g mask="url(#mask0_6167_13609)">
<path d="M14.85 14.4001H3.15005C2.7788 14.4001 2.46099 14.2679 2.19661 14.0035C1.93224 13.7392 1.80005 13.4213 1.80005 13.0501V10.3501C2.1713 10.3501 2.48911 10.2175 2.75349 9.95241C3.01786 9.68728 3.15005 9.36854 3.15005 8.99616C3.15005 8.62379 3.01786 8.30541 2.75349 8.04103C2.48911 7.77666 2.1713 7.64447 1.80005 7.64447V4.94447C1.80005 4.57322 1.93224 4.25635 2.19661 3.99385C2.46099 3.73135 2.7788 3.6001 3.15005 3.6001H14.85C15.2213 3.6001 15.5391 3.73229 15.8035 3.99666C16.0679 4.26104 16.2 4.57885 16.2 4.9501V7.6501C15.8288 7.6501 15.511 7.78266 15.2466 8.04779C14.9822 8.31291 14.85 8.63166 14.85 9.00403C14.85 9.37641 14.9822 9.69478 15.2466 9.95916C15.511 10.2235 15.8288 10.3557 16.2 10.3557V13.0557C16.2 13.427 16.0679 13.7438 15.8035 14.0063C15.5391 14.2688 15.2213 14.4001 14.85 14.4001ZM14.85 13.0501V11.3438C14.45 11.1063 14.125 10.7813 13.875 10.3688C13.625 9.95635 13.5 9.5001 13.5 9.0001C13.5 8.5001 13.625 8.04385 13.875 7.63135C14.125 7.21885 14.45 6.89385 14.85 6.65635V4.9501H3.15005V6.65635C3.55005 6.89385 3.87505 7.21885 4.12505 7.63135C4.37505 8.04385 4.50005 8.5001 4.50005 9.0001C4.50005 9.5001 4.37505 9.95635 4.12505 10.3688C3.87505 10.7813 3.55005 11.1063 3.15005 11.3438V13.0501H14.85Z" fill="#232529"/>
<path d="M8.42055 10.9001V9.4826H7.00305V8.2676H8.42055V6.8501H9.63555V8.2676H11.0531V9.4826H9.63555V10.9001H8.42055Z" fill="#232529"/>
</g>
</g>
<defs>
<clipPath id="clip0_6167_13609">
<rect width="18" height="18" fill="white"/>
</clipPath>
</defs>
</svg>
