<svg width="18" height="18" viewBox="0 0 18 18" fill="none" xmlns="http://www.w3.org/2000/svg">
<g clip-path="url(#clip0_6167_754)">
<mask id="mask0_6167_754" style="mask-type:alpha" maskUnits="userSpaceOnUse" x="0" y="0" width="20" height="20">
<rect width="20" height="20" fill="#D9D9D9"/>
</mask>
<g mask="url(#mask0_6167_754)">
<path d="M6.75474 12.1498C7.18911 12.1498 7.55942 11.9951 7.86567 11.6857C8.17192 11.3764 8.32505 11.0045 8.32505 10.5701C8.32505 10.1357 8.17036 9.76543 7.86099 9.45918C7.55161 9.15293 7.17974 8.9998 6.74536 8.9998C6.31099 8.9998 5.94067 9.15449 5.63442 9.46387C5.32817 9.77324 5.17505 10.1451 5.17505 10.5795C5.17505 11.0139 5.32974 11.3842 5.63911 11.6904C5.94849 11.9967 6.32036 12.1498 6.75474 12.1498ZM11.2547 12.1498C11.6891 12.1498 12.0594 11.9951 12.3657 11.6857C12.6719 11.3764 12.825 11.0045 12.825 10.5701C12.825 10.1357 12.6704 9.76543 12.361 9.45918C12.0516 9.15293 11.6797 8.9998 11.2454 8.9998C10.811 8.9998 10.4407 9.15449 10.1344 9.46387C9.82817 9.77324 9.67505 10.1451 9.67505 10.5795C9.67505 11.0139 9.82974 11.3842 10.1391 11.6904C10.4485 11.9967 10.8204 12.1498 11.2547 12.1498ZM9.00474 8.3248C9.43911 8.3248 9.80942 8.17012 10.1157 7.86074C10.4219 7.55137 10.575 7.17949 10.575 6.74512C10.575 6.31074 10.4204 5.94043 10.111 5.63418C9.80161 5.32793 9.42974 5.1748 8.99536 5.1748C8.56099 5.1748 8.19067 5.32949 7.88442 5.63887C7.57817 5.94824 7.42505 6.32012 7.42505 6.75449C7.42505 7.18887 7.57974 7.55918 7.88911 7.86543C8.19849 8.17168 8.57036 8.3248 9.00474 8.3248ZM9.0053 16.1998C8.0143 16.1998 7.0813 16.0123 6.2063 15.6373C5.3313 15.2623 4.56567 14.7467 3.90942 14.0904C3.25317 13.4342 2.73755 12.6688 2.36255 11.7943C1.98755 10.9198 1.80005 9.98543 1.80005 8.99118C1.80005 7.99693 1.98755 7.06543 2.36255 6.19668C2.73755 5.32793 3.25317 4.56543 3.90942 3.90918C4.56567 3.25293 5.33105 2.7373 6.20555 2.3623C7.08005 1.9873 8.01442 1.7998 9.00867 1.7998C10.0029 1.7998 10.9344 1.9873 11.8032 2.3623C12.6719 2.7373 13.4344 3.25293 14.0907 3.90918C14.7469 4.56543 15.2625 5.3293 15.6375 6.2008C16.0125 7.07243 16.2 8.00368 16.2 8.99455C16.2 9.98555 16.0125 10.9186 15.6375 11.7936C15.2625 12.6686 14.7469 13.4342 14.0907 14.0904C13.4344 14.7467 12.6705 15.2623 11.799 15.6373C10.9274 16.0123 9.99617 16.1998 9.0053 16.1998ZM9.00005 14.8498C10.625 14.8498 12.0063 14.2811 13.1438 13.1436C14.2813 12.0061 14.85 10.6248 14.85 8.9998C14.85 7.3748 14.2813 5.99355 13.1438 4.85605C12.0063 3.71855 10.625 3.1498 9.00005 3.1498C7.37505 3.1498 5.9938 3.71855 4.8563 4.85605C3.7188 5.99355 3.15005 7.3748 3.15005 8.9998C3.15005 10.6248 3.7188 12.0061 4.8563 13.1436C5.9938 14.2811 7.37505 14.8498 9.00005 14.8498Z" fill="#1C1B1F"/>
</g>
</g>
<defs>
<clipPath id="clip0_6167_754">
<rect width="18" height="18" fill="white"/>
</clipPath>
</defs>
</svg>
