<svg width="18" height="18" viewBox="0 0 18 18" fill="none" xmlns="http://www.w3.org/2000/svg">
<g clip-path="url(#clip0_6167_13588)">
<mask id="mask0_6167_13588" style="mask-type:alpha" maskUnits="userSpaceOnUse" x="0" y="0" width="20" height="20">
<rect width="20" height="20" fill="#D9D9D9"/>
</mask>
<g mask="url(#mask0_6167_13588)">
<path d="M9.17308 8.94581C9.48789 8.58257 9.73006 8.18227 9.89957 7.74492C10.0691 7.30757 10.1538 6.85423 10.1538 6.38492C10.1538 5.91984 10.0691 5.47056 9.89957 5.03708C9.73006 4.60373 9.48789 4.19937 9.17308 3.82402C9.26994 3.7998 9.36075 3.78467 9.44551 3.77861C9.53027 3.77256 9.62108 3.76953 9.71795 3.76953C10.4444 3.76953 11.062 4.0238 11.5705 4.53235C12.0791 5.0409 12.3333 5.65842 12.3333 6.38492C12.3333 7.11141 12.0791 7.72893 11.5705 8.23748C11.062 8.74603 10.4444 9.0003 9.71795 9.0003C9.62108 9.0003 9.52724 8.99727 9.43643 8.99122C9.34562 8.98517 9.25783 8.97003 9.17308 8.94581ZM12.7692 14.2311V12.5601C12.7692 12.0637 12.6542 11.6006 12.4241 11.1707C12.1941 10.7409 11.8732 10.3746 11.4615 10.0719C12.2849 10.2656 13.0719 10.532 13.8226 10.871C14.5734 11.2101 14.9487 11.7731 14.9487 12.5601V14.2311H12.7692ZM15.1667 9.8721V8.34645H13.641V7.03876H15.1667V5.51312H16.4744V7.03876H18V8.34645H16.4744V9.8721H15.1667ZM6.23077 9.0003C5.50427 9.0003 4.88675 8.74603 4.37821 8.23748C3.86966 7.72893 3.61538 7.11141 3.61538 6.38492C3.61538 5.65842 3.86966 5.0409 4.37821 4.53235C4.88675 4.0238 5.50427 3.76953 6.23077 3.76953C6.95726 3.76953 7.57479 4.0238 8.08333 4.53235C8.59188 5.0409 8.84615 5.65842 8.84615 6.38492C8.84615 7.11141 8.59188 7.72893 8.08333 8.23748C7.57479 8.74603 6.95726 9.0003 6.23077 9.0003ZM1 14.2311V12.5601C1 12.2525 1.07568 11.9697 1.22703 11.7119C1.37838 11.454 1.58725 11.2403 1.85363 11.0708C2.50748 10.6591 3.20697 10.3564 3.95212 10.1627C4.69726 9.96896 5.45402 9.8721 6.22241 9.8721C6.99081 9.8721 7.7443 9.97502 8.48291 10.1809C9.22151 10.3867 9.92984 10.6833 10.6079 11.0708C10.8622 11.2403 11.068 11.454 11.2254 11.7119C11.3828 11.9697 11.4615 12.2525 11.4615 12.5601V14.2311H1ZM6.22169 7.69261C6.57888 7.69261 6.88764 7.56547 7.14797 7.3112C7.4083 7.0568 7.53846 6.75107 7.53846 6.394C7.53846 6.0368 7.4083 5.72804 7.14797 5.46772C6.88764 5.20739 6.57888 5.07722 6.22169 5.07722C5.86462 5.07722 5.55888 5.20739 5.30449 5.46772C5.05021 5.72804 4.92308 6.0368 4.92308 6.394C4.92308 6.75107 5.05021 7.0568 5.30449 7.3112C5.55888 7.56547 5.86462 7.69261 6.22169 7.69261ZM2.30769 12.9234H10.1538V12.5601C10.1538 12.4866 10.1357 12.4199 10.0994 12.3598C10.063 12.2996 10.0146 12.2453 9.95406 12.1969C9.37286 11.8821 8.77048 11.6338 8.1469 11.4522C7.52333 11.2706 6.88159 11.1798 6.22169 11.1798C5.56179 11.1798 4.92005 11.2676 4.29647 11.4431C3.6729 11.6187 3.07657 11.87 2.50748 12.1969C2.44694 12.2453 2.3985 12.2996 2.36218 12.3598C2.32585 12.4199 2.30769 12.4866 2.30769 12.5601V12.9234Z" fill="#232529"/>
</g>
</g>
<defs>
<clipPath id="clip0_6167_13588">
<rect width="18" height="18" fill="white"/>
</clipPath>
</defs>
</svg>
