<svg width="18" height="18" viewBox="0 0 18 18" fill="none" xmlns="http://www.w3.org/2000/svg">
<g clip-path="url(#clip0_6167_13571)">
<mask id="mask0_6167_13571" style="mask-type:alpha" maskUnits="userSpaceOnUse" x="0" y="0" width="20" height="20">
<rect width="20" height="20" fill="#D9D9D9"/>
</mask>
<g mask="url(#mask0_6167_13571)">
<path d="M4.04995 13.9502H5.0062L12.0375 6.91895L11.0812 5.9627L4.04995 12.9939V13.9502ZM2.69995 15.3002V12.4314L12.0375 3.09395C12.175 2.95645 12.324 2.85645 12.4845 2.79395C12.6448 2.73145 12.8136 2.7002 12.9907 2.7002C13.1677 2.7002 13.3375 2.73145 13.5 2.79395C13.6625 2.85645 13.8125 2.95645 13.95 3.09395L14.9062 4.0502C15.0437 4.1877 15.1437 4.3377 15.2062 4.5002C15.2687 4.6627 15.3 4.82857 15.3 4.99782C15.3 5.17845 15.2686 5.35057 15.2058 5.5142C15.1431 5.67782 15.0432 5.82732 14.9062 5.9627L5.5687 15.3002H2.69995ZM11.5509 6.44926L11.0812 5.9627L12.0375 6.91895L11.5509 6.44926Z" fill="#232529"/>
</g>
</g>
<defs>
<clipPath id="clip0_6167_13571">
<rect width="18" height="18" rx="5" fill="white"/>
</clipPath>
</defs>
</svg>
