<svg width="18" height="18" viewBox="0 0 18 18" fill="none" xmlns="http://www.w3.org/2000/svg">
<g clip-path="url(#clip0_6167_7719)">
<mask id="mask0_6167_7719" style="mask-type:alpha" maskUnits="userSpaceOnUse" x="0" y="0" width="20" height="20">
<rect width="20" height="20" fill="#D9D9D9"/>
</mask>
<g mask="url(#mask0_6167_7719)">
<path d="M7.5562 16.1998L7.1437 14.0623C6.8562 13.9498 6.57808 13.8186 6.30933 13.6686C6.04058 13.5186 5.78745 13.3436 5.54995 13.1436L3.48745 13.8373L2.0437 11.3436L3.67495 9.91855C3.64995 9.76855 3.6312 9.61855 3.6187 9.46855C3.6062 9.31855 3.59995 9.1623 3.59995 8.9998C3.59995 8.8373 3.6062 8.68105 3.6187 8.53105C3.6312 8.38105 3.64995 8.23105 3.67495 8.08105L2.0437 6.65605L3.48745 4.1623L5.54995 4.85605C5.78745 4.65605 6.04058 4.48105 6.30933 4.33105C6.57808 4.18105 6.8562 4.0498 7.1437 3.9373L7.5562 1.7998H10.4437L10.8562 3.9373C11.1437 4.0498 11.4218 4.18105 11.6906 4.33105C11.9593 4.48105 12.2125 4.65605 12.45 4.85605L14.5125 4.1623L15.9562 6.65605L14.325 8.08105C14.35 8.23105 14.3687 8.38105 14.3812 8.53105C14.3937 8.68105 14.4 8.8373 14.4 8.9998C14.4 9.1623 14.3937 9.31855 14.3812 9.46855C14.3687 9.61855 14.35 9.76855 14.325 9.91855L15.9562 11.3436L14.5125 13.8373L12.45 13.1436C12.2125 13.3436 11.9593 13.5186 11.6906 13.6686C11.4218 13.8186 11.1437 13.9498 10.8562 14.0623L10.4437 16.1998H7.5562ZM8.66245 14.8498H9.33745L9.6937 12.9936C10.1687 12.9061 10.6125 12.7436 11.025 12.5061C11.4375 12.2686 11.7937 11.9686 12.0937 11.6061L13.8937 12.2061L14.2312 11.6436L12.8062 10.3873C12.8812 10.1748 12.9406 9.95293 12.9843 9.72168C13.0281 9.49043 13.05 9.2498 13.05 8.9998C13.05 8.7498 13.0281 8.50918 12.9843 8.27793C12.9406 8.04668 12.8812 7.8248 12.8062 7.6123L14.2312 6.35605L13.8937 5.79355L12.0937 6.39355C11.7937 6.03105 11.4375 5.73105 11.025 5.49355C10.6125 5.25605 10.1687 5.09355 9.6937 5.00605L9.33745 3.1498H8.66245L8.3062 5.00605C7.8312 5.09355 7.38745 5.25605 6.97495 5.49355C6.56245 5.73105 6.2062 6.03105 5.9062 6.39355L4.1062 5.79355L3.7687 6.35605L5.1937 7.6123C5.1187 7.8248 5.05933 8.04668 5.01558 8.27793C4.97183 8.50918 4.94995 8.7498 4.94995 8.9998C4.94995 9.2498 4.97183 9.49043 5.01558 9.72168C5.05933 9.95293 5.1187 10.1748 5.1937 10.3873L3.7687 11.6436L4.1062 12.2061L5.9062 11.6061C6.2062 11.9686 6.56245 12.2686 6.97495 12.5061C7.38745 12.7436 7.8312 12.9061 8.3062 12.9936L8.66245 14.8498ZM8.99995 11.6998C9.74995 11.6998 10.3875 11.4373 10.9125 10.9123C11.4375 10.3873 11.7 9.7498 11.7 8.9998C11.7 8.2498 11.4375 7.6123 10.9125 7.0873C10.3875 6.5623 9.74995 6.2998 8.99995 6.2998C8.24995 6.2998 7.61245 6.5623 7.08745 7.0873C6.56245 7.6123 6.29995 8.2498 6.29995 8.9998C6.29995 9.7498 6.56245 10.3873 7.08745 10.9123C7.61245 11.4373 8.24995 11.6998 8.99995 11.6998Z" fill="#232529"/>
</g>
</g>
<defs>
<clipPath id="clip0_6167_7719">
<rect width="18" height="18" fill="white"/>
</clipPath>
</defs>
</svg>
