<svg width="15" height="14" viewBox="0 0 15 14" fill="none" xmlns="http://www.w3.org/2000/svg">
<path d="M2.19922 11.3958C2.977 10.7569 3.83811 10.2812 4.78255 9.96875C5.727 9.65625 6.69922 9.5 7.69922 9.5C8.69922 9.5 9.67144 9.65278 10.6159 9.95833C11.5603 10.2639 12.4214 10.7431 13.1992 11.3958V1.5H2.19922V11.3958ZM7.70422 8.5C8.53422 8.5 9.24089 8.20667 9.82422 7.62C10.4076 7.03333 10.6992 6.325 10.6992 5.495C10.6992 4.665 10.4059 3.95833 9.81922 3.375C9.23255 2.79167 8.52422 2.5 7.69422 2.5C6.86422 2.5 6.15755 2.79333 5.57422 3.38C4.99089 3.96667 4.69922 4.675 4.69922 5.505C4.69922 6.335 4.99255 7.04167 5.57922 7.625C6.16589 8.20833 6.87422 8.5 7.70422 8.5ZM2.19922 14C1.78672 14 1.43359 13.8531 1.13984 13.5594C0.846094 13.2656 0.699219 12.9125 0.699219 12.5V1.5C0.699219 1.0875 0.846094 0.734376 1.13984 0.440626C1.43359 0.146876 1.78672 0 2.19922 0H13.1992C13.6117 0 13.9648 0.146876 14.2586 0.440626C14.5523 0.734376 14.6992 1.0875 14.6992 1.5V12.5C14.6992 12.9125 14.5523 13.2656 14.2586 13.5594C13.9648 13.8531 13.6117 14 13.1992 14H2.19922ZM3.22005 12.5H12.1784C11.5395 12.0139 10.8381 11.6424 10.0742 11.3854C9.31033 11.1285 8.51866 11 7.69922 11C6.87977 11 6.09158 11.1285 5.33464 11.3854C4.57769 11.6424 3.87283 12.0139 3.22005 12.5ZM7.69922 7C7.28255 7 6.92839 6.85417 6.63672 6.5625C6.34505 6.27083 6.19922 5.91667 6.19922 5.5C6.19922 5.08333 6.34505 4.72917 6.63672 4.4375C6.92839 4.14583 7.28255 4 7.69922 4C8.11589 4 8.47005 4.14583 8.76172 4.4375C9.05339 4.72917 9.19922 5.08333 9.19922 5.5C9.19922 5.91667 9.05339 6.27083 8.76172 6.5625C8.47005 6.85417 8.11589 7 7.69922 7Z" fill="#101010"/>
</svg>
