<svg width="65" height="64" viewBox="0 0 65 64" fill="none" xmlns="http://www.w3.org/2000/svg">
<rect x="0.699219" width="64" height="64" rx="32" fill="#F1F0F4"/>
<mask id="mask0_5734_9678" style="mask-type:alpha" maskUnits="userSpaceOnUse" x="12" y="12" width="41" height="40">
<rect x="12.6992" y="12" width="40" height="40" fill="#D9D9D9"/>
</mask>
<g mask="url(#mask0_5734_9678)">
</g>
<g clip-path="url(#clip0_5734_9678)">
<path d="M40.7409 37.6915C42.4089 35.5285 43.3117 32.8729 43.3076 30.1415C43.3076 27.6758 42.5765 25.2655 41.2066 23.2154C39.8367 21.1652 37.8897 19.5674 35.6117 18.6238C33.3337 17.6802 30.8271 17.4333 28.4088 17.9144C25.9905 18.3954 23.7692 19.5827 22.0257 21.3262C20.2822 23.0697 19.0948 25.2911 18.6138 27.7094C18.1328 30.1276 18.3797 32.6343 19.3232 34.9123C20.2668 37.1903 21.8647 39.1373 23.9148 40.5071C25.965 41.877 28.3753 42.6081 30.8409 42.6081C33.5724 42.6122 36.2279 41.7095 38.3909 40.0415L44.6743 46.3248L47.0243 43.9748L40.7409 37.6915ZM21.7076 30.1415C21.7076 28.3351 22.2433 26.5692 23.2469 25.0673C24.2504 23.5653 25.6769 22.3947 27.3458 21.7034C29.0147 21.0121 30.8511 20.8312 32.6228 21.1836C34.3945 21.536 36.0219 22.4059 37.2992 23.6832C38.5765 24.9606 39.4464 26.588 39.7988 28.3597C40.1512 30.1313 39.9703 31.9678 39.279 33.6367C38.5878 35.3056 37.4171 36.732 35.9151 37.7356C34.4132 38.7392 32.6473 39.2748 30.8409 39.2748C28.42 39.2704 26.0994 38.3067 24.3876 36.5949C22.6757 34.883 21.712 32.5624 21.7076 30.1415Z" fill="#686662" fill-opacity="0.6"/>
</g>
<defs>
<clipPath id="clip0_5734_9678">
<rect width="30.1833" height="30.1833" fill="white" transform="translate(17.6077 16.9082)"/>
</clipPath>
</defs>
</svg>
