<svg width="15" height="16" viewBox="0 0 15 16" fill="none" xmlns="http://www.w3.org/2000/svg">
<path d="M4.45359 9.5C4.24234 9.5 4.0638 9.42854 3.91797 9.28563C3.77214 9.14271 3.69922 8.96563 3.69922 8.75438C3.69922 8.54313 3.77068 8.36458 3.91359 8.21875C4.05651 8.07292 4.23359 8 4.44484 8C4.65609 8 4.83464 8.07146 4.98047 8.21438C5.1263 8.35729 5.19922 8.53438 5.19922 8.74563C5.19922 8.95688 5.12776 9.13542 4.98484 9.28125C4.84193 9.42708 4.66484 9.5 4.45359 9.5ZM7.70359 9.5C7.49234 9.5 7.3138 9.42854 7.16797 9.28563C7.02214 9.14271 6.94922 8.96563 6.94922 8.75438C6.94922 8.54313 7.02068 8.36458 7.16359 8.21875C7.30651 8.07292 7.48359 8 7.69484 8C7.90609 8 8.08464 8.07146 8.23047 8.21438C8.3763 8.35729 8.44922 8.53438 8.44922 8.74563C8.44922 8.95688 8.37776 9.13542 8.23484 9.28125C8.09193 9.42708 7.91484 9.5 7.70359 9.5ZM10.9536 9.5C10.7423 9.5 10.5638 9.42854 10.418 9.28563C10.2721 9.14271 10.1992 8.96563 10.1992 8.75438C10.1992 8.54313 10.2707 8.36458 10.4136 8.21875C10.5565 8.07292 10.7336 8 10.9448 8C11.1561 8 11.3346 8.07146 11.4805 8.21438C11.6263 8.35729 11.6992 8.53438 11.6992 8.74563C11.6992 8.95688 11.6278 9.13542 11.4848 9.28125C11.3419 9.42708 11.1648 9.5 10.9536 9.5ZM2.19922 16C1.78672 16 1.43359 15.8507 1.13984 15.5521C0.846094 15.2535 0.699219 14.9028 0.699219 14.5V3.5C0.699219 3.09722 0.846094 2.74653 1.13984 2.44792C1.43359 2.14931 1.78672 2 2.19922 2H3.69922V0H5.19922V2H10.1992V0H11.6992V2H13.1992C13.6117 2 13.9648 2.14931 14.2586 2.44792C14.5523 2.74653 14.6992 3.09722 14.6992 3.5V14.5C14.6992 14.9028 14.5523 15.2535 14.2586 15.5521C13.9648 15.8507 13.6117 16 13.1992 16H2.19922ZM2.19922 14.5H13.1992V7H2.19922V14.5ZM2.19922 5.5H13.1992V3.5H2.19922V5.5Z" fill="#232529"/>
</svg>
