<svg width="17" height="14" viewBox="0 0 17 14" fill="none" xmlns="http://www.w3.org/2000/svg">
<path d="M0.699219 14V0H8.69922V3H16.6992V14H0.699219ZM2.19922 12.5H3.69922V11H2.19922V12.5ZM2.19922 9.33333H3.69922V7.83333H2.19922V9.33333ZM2.19922 6.16667H3.69922V4.66667H2.19922V6.16667ZM2.19922 3H3.69922V1.5H2.19922V3ZM5.69922 12.5H7.19922V11H5.69922V12.5ZM5.69922 9.33333H7.19922V7.83333H5.69922V9.33333ZM5.69922 6.16667H7.19922V4.66667H5.69922V6.16667ZM5.69922 3H7.19922V1.5H5.69922V3ZM8.69922 12.5H15.1992V4.5H8.69922V6.16667H10.1992V7.66667H8.69922V9.33333H10.1992V10.8333H8.69922V12.5ZM12.1992 7.66667V6.16667H13.6992V7.66667H12.1992ZM12.1992 10.8333V9.33333H13.6992V10.8333H12.1992Z" fill="#232529"/>
</svg>
