<svg width="11" height="13" viewBox="0 0 11 13" fill="none" xmlns="http://www.w3.org/2000/svg">
<path d="M5.69922 13L1.26172 9.45833C1.08116 9.30556 0.942274 9.1275 0.845051 8.92417C0.747829 8.72097 0.699218 8.50319 0.699218 8.27083L0.699219 1.5C0.699219 1.0875 0.846093 0.734374 1.13984 0.440624C1.43359 0.146874 1.78672 -3.89578e-07 2.19922 -3.71547e-07L9.19922 -6.55671e-08C9.61172 -4.75361e-08 9.96484 0.146875 10.2586 0.440625C10.5523 0.734375 10.6992 1.0875 10.6992 1.5L10.6992 8.27083C10.6992 8.50319 10.6506 8.72097 10.5534 8.92417C10.4562 9.1275 10.3173 9.30556 10.1367 9.45833L5.69922 13ZM5.69922 11.0833L9.19922 8.27083L9.19922 1.5L2.19922 1.5L2.19922 8.27083L5.69922 11.0833Z" fill="#232529"/>
</svg>
