<svg width="13" height="12" viewBox="0 0 13 12" fill="none" xmlns="http://www.w3.org/2000/svg">
<path d="M6.69922 6C5.86589 6 5.15755 5.70833 4.57422 5.125C3.99089 4.54167 3.69922 3.83333 3.69922 3C3.69922 2.16667 3.99089 1.45833 4.57422 0.875C5.15755 0.291667 5.86589 0 6.69922 0C7.53255 0 8.24089 0.291667 8.82422 0.875C9.40755 1.45833 9.69922 2.16667 9.69922 3C9.69922 3.83333 9.40755 4.54167 8.82422 5.125C8.24089 5.70833 7.53255 6 6.69922 6ZM0.699219 12V10C0.699219 9.68056 0.786024 9.37847 0.959635 9.09375C1.13325 8.80903 1.37283 8.56944 1.67839 8.375C2.44227 7.93056 3.24984 7.59028 4.10109 7.35417C4.95234 7.11806 5.81693 7 6.69484 7C7.57276 7 8.4388 7.11806 9.29297 7.35417C10.1471 7.59028 10.9562 7.93056 11.7201 8.375C12.0256 8.55556 12.2652 8.79167 12.4388 9.08333C12.6124 9.375 12.6992 9.68056 12.6992 10V12H0.699219ZM2.19922 10.5H11.1992V10C11.1992 9.92806 11.1782 9.86271 11.1361 9.80396C11.0941 9.74507 11.0388 9.69931 10.9701 9.66667C10.3312 9.27778 9.65061 8.98611 8.92839 8.79167C8.20616 8.59722 7.46311 8.5 6.69922 8.5C5.93533 8.5 5.19227 8.59722 4.47005 8.79167C3.74783 8.98611 3.06727 9.27778 2.42839 9.66667C2.35894 9.72222 2.30339 9.77583 2.26172 9.8275C2.22005 9.87931 2.19922 9.93681 2.19922 10V10.5ZM6.70359 4.5C7.11734 4.5 7.47005 4.35271 7.76172 4.05812C8.05339 3.76354 8.19922 3.40937 8.19922 2.99562C8.19922 2.58187 8.05193 2.22917 7.75734 1.9375C7.46276 1.64583 7.10859 1.5 6.69484 1.5C6.28109 1.5 5.92839 1.64729 5.63672 1.94188C5.34505 2.23646 5.19922 2.59063 5.19922 3.00438C5.19922 3.41813 5.34651 3.77083 5.64109 4.0625C5.93568 4.35417 6.28984 4.5 6.70359 4.5Z" fill="#232529"/>
</svg>
