<svg width="21" height="20" viewBox="0 0 21 20" fill="none" xmlns="http://www.w3.org/2000/svg">
<mask id="mask0_5699_9576" style="mask-type:alpha" maskUnits="userSpaceOnUse" x="0" y="0" width="17" height="17">
<rect x="0.699219" y="0.821289" width="16" height="16" fill="#D9D9D9"/>
</mask>
<g mask="url(#mask0_5699_9576)">
<path d="M16.6367 18.0269L11.6576 13.0477C11.2409 13.3532 10.784 13.5928 10.2869 13.7664C9.78984 13.9401 9.26082 14.0269 8.69984 14.0269C7.31054 14.0269 6.12977 13.5407 5.15755 12.5685C4.18533 11.5963 3.69922 10.4157 3.69922 9.02686C3.69922 7.63797 4.18533 6.45741 5.15755 5.48519C6.12977 4.51297 7.31033 4.02686 8.69922 4.02686C10.0881 4.02686 11.2687 4.51297 12.2409 5.48519C13.2131 6.45741 13.6992 7.63818 13.6992 9.02748C13.6992 9.58845 13.6124 10.1175 13.4388 10.6146C13.2652 11.1116 13.0256 11.5685 12.7201 11.9852L17.6992 16.9644L16.6367 18.0269ZM8.69922 12.5269C9.67144 12.5269 10.4978 12.1866 11.1784 11.506C11.8589 10.8255 12.1992 9.99908 12.1992 9.02686C12.1992 8.05463 11.8589 7.22824 11.1784 6.54769C10.4978 5.86713 9.67144 5.52686 8.69922 5.52686C7.727 5.52686 6.90061 5.86713 6.22005 6.54769C5.5395 7.22824 5.19922 8.05463 5.19922 9.02686C5.19922 9.99908 5.5395 10.8255 6.22005 11.506C6.90061 12.1866 7.727 12.5269 8.69922 12.5269Z" fill="#686662"/>
</g>
</svg>
