<svg width="17" height="12" viewBox="0 0 17 12" fill="none" xmlns="http://www.w3.org/2000/svg">
<path d="M3.69922 9H10.1992V7.5H3.69922V9ZM3.69922 6.5H13.6992V5H3.69922V6.5ZM2.19922 12C1.79644 12 1.44575 11.8507 1.14714 11.5521C0.848524 11.2535 0.699219 10.9028 0.699219 10.5V1.5C0.699219 1.0875 0.848524 0.734376 1.14714 0.440626C1.44575 0.146876 1.79644 0 2.19922 0H6.69922L8.69922 2H15.1992C15.6117 2 15.9648 2.14688 16.2586 2.44063C16.5523 2.73438 16.6992 3.0875 16.6992 3.5V10.5C16.6992 10.9028 16.5523 11.2535 16.2586 11.5521C15.9648 11.8507 15.6117 12 15.1992 12H2.19922ZM2.19922 10.5H15.1992V3.5H8.07422L6.07422 1.5H2.19922V10.5Z" fill="#232529"/>
</svg>
