<svg width="20" height="21" viewBox="0 0 20 21" fill="none" xmlns="http://www.w3.org/2000/svg">
<mask id="mask0_4809_3893" style="mask-type:alpha" maskUnits="userSpaceOnUse" x="0" y="0" width="20" height="21">
<rect y="0.619629" width="20" height="20" fill="#D9D9D9"/>
</mask>
<g mask="url(#mask0_4809_3893)">
<path d="M5.625 12.3696H14.375V11.0571H5.625V12.3696ZM5.625 9.96338H14.375V8.65088H5.625V9.96338ZM5.625 7.55713H14.375V6.24463H5.625V7.55713ZM17 17.6196L14.375 14.9946H4.3125C3.95156 14.9946 3.64258 14.8661 3.38555 14.6091C3.12852 14.3521 3 14.0431 3 13.6821V4.93213C3 4.57119 3.12852 4.26221 3.38555 4.00518C3.64258 3.74814 3.95156 3.61963 4.3125 3.61963H15.6875C16.0484 3.61963 16.3574 3.74814 16.6145 4.00518C16.8715 4.26221 17 4.57119 17 4.93213V17.6196ZM4.3125 13.6821H14.9219L15.6875 14.4478V4.93213H4.3125V13.6821Z" fill="#686662"/>
</g>
</svg>
