<svg width="20" height="21" viewBox="0 0 20 21" fill="none" xmlns="http://www.w3.org/2000/svg">
<mask id="mask0_4809_3887" style="mask-type:alpha" maskUnits="userSpaceOnUse" x="0" y="0" width="21" height="21">
<rect x="0.00268555" y="0.619629" width="20" height="20" fill="#D9D9D9"/>
</mask>
<g mask="url(#mask0_4809_3887)">
<path d="M9.25269 14.6196H10.7527V9.61963H9.25269V14.6196ZM9.99831 8.11963C10.2096 8.11963 10.3881 8.04817 10.5339 7.90525C10.6798 7.76234 10.7527 7.58525 10.7527 7.374C10.7527 7.16275 10.6812 6.98421 10.5383 6.83838C10.3954 6.69255 10.2183 6.61963 10.0071 6.61963C9.79581 6.61963 9.61727 6.69109 9.47144 6.834C9.3256 6.97692 9.25269 7.154 9.25269 7.36525C9.25269 7.5765 9.32414 7.75505 9.46706 7.90088C9.60998 8.04671 9.78706 8.11963 9.99831 8.11963ZM10.0085 18.6196C8.90741 18.6196 7.87074 18.4113 6.89852 17.9946C5.9263 17.578 5.0756 17.005 4.34644 16.2759C3.61727 15.5467 3.04435 14.6963 2.62769 13.7246C2.21102 12.753 2.00269 11.7148 2.00269 10.61C2.00269 9.50532 2.21102 8.47032 2.62769 7.50505C3.04435 6.53977 3.61727 5.69255 4.34644 4.96338C5.0756 4.23421 5.92602 3.6613 6.89769 3.24463C7.86935 2.82796 8.90755 2.61963 10.0123 2.61963C11.117 2.61963 12.152 2.82796 13.1173 3.24463C14.0825 3.6613 14.9298 4.23421 15.6589 4.96338C16.3881 5.69255 16.961 6.5413 17.3777 7.50963C17.7944 8.4781 18.0027 9.51282 18.0027 10.6138C18.0027 11.7149 17.7944 12.7516 17.3777 13.7238C16.961 14.696 16.3881 15.5467 15.6589 16.2759C14.9298 17.005 14.081 17.578 13.1127 17.9946C12.1442 18.4113 11.1095 18.6196 10.0085 18.6196ZM10.0027 17.1196C11.8082 17.1196 13.343 16.4877 14.6069 15.2238C15.8707 13.9599 16.5027 12.4252 16.5027 10.6196C16.5027 8.81407 15.8707 7.27935 14.6069 6.01546C13.343 4.75157 11.8082 4.11963 10.0027 4.11963C8.19713 4.11963 6.66241 4.75157 5.39852 6.01546C4.13463 7.27935 3.50269 8.81407 3.50269 10.6196C3.50269 12.4252 4.13463 13.9599 5.39852 15.2238C6.66241 16.4877 8.19713 17.1196 10.0027 17.1196Z" fill="#6941C6"/>
</g>
</svg>
