<svg width="21" height="20" viewBox="0 0 21 20" fill="none" xmlns="http://www.w3.org/2000/svg">
<mask id="mask0_4809_3898" style="mask-type:alpha" maskUnits="userSpaceOnUse" x="0" y="0" width="21" height="20">
<rect x="0.260498" width="20" height="20" fill="#D9D9D9"/>
</mask>
<g mask="url(#mask0_4809_3898)">
<path d="M4.7605 15.5H11.7605V11.5H15.7605V4.5H4.7605V15.5ZM4.7605 17C4.348 17 3.99487 16.8531 3.70112 16.5594C3.40737 16.2656 3.2605 15.9125 3.2605 15.5V4.5C3.2605 4.0875 3.40737 3.73438 3.70112 3.44063C3.99487 3.14688 4.348 3 4.7605 3H15.7605C16.173 3 16.5261 3.14688 16.8199 3.44063C17.1136 3.73438 17.2605 4.0875 17.2605 4.5V12L12.2605 17H4.7605ZM6.2605 11.5V10H10.2605V11.5H6.2605ZM6.2605 8.5V7H14.2605V8.5H6.2605Z" fill="#686662"/>
</g>
</svg>
