<svg width="20" height="20" viewBox="0 0 20 20" fill="none" xmlns="http://www.w3.org/2000/svg">
<path d="M18.7812 11.7859C19.8508 11.5234 19.8508 11.0785 18.7812 10.8107L16.4187 10.2227C15.3503 9.96025 14.2544 8.86038 13.9879 7.79201L13.3999 5.42952C13.1374 4.35984 12.6912 4.35984 12.4247 5.42952L11.8368 7.79201C11.5743 8.86038 10.4731 9.95631 9.4047 10.2227L7.04221 10.8107C5.97384 11.0732 5.97384 11.5195 7.04221 11.7859L9.4047 12.3739C10.4731 12.6364 11.569 13.7376 11.8368 14.806L12.4247 17.1685C12.6872 18.2368 13.1322 18.2368 13.3999 17.1685L13.9879 14.806C14.2504 13.7376 15.3503 12.6417 16.4187 12.3739L18.7812 11.7859ZM8.3009 5.91777C8.73139 5.81014 8.73139 5.63164 8.3009 5.52402L7.34671 5.28646C7.11589 5.21507 6.90596 5.08847 6.73511 4.91762C6.56427 4.74678 6.43767 4.53685 6.36628 4.30602L6.12872 3.35315C6.02109 2.92134 5.84391 2.92134 5.73497 3.35315L5.49741 4.30602C5.42602 4.53685 5.29942 4.74678 5.12858 4.91762C4.95773 5.08847 4.7478 5.21507 4.51698 5.28646L3.56279 5.52402C3.1323 5.63164 3.1323 5.81014 3.56279 5.91777L4.51698 6.15402C4.74764 6.22571 4.95741 6.35241 5.12821 6.52321C5.29901 6.69401 5.42572 6.90378 5.49741 7.13445L5.73497 8.08863C5.8426 8.51913 6.01978 8.51913 6.12872 8.08863L6.36628 7.13445C6.43797 6.90378 6.56467 6.69401 6.73548 6.52321C6.90628 6.35241 7.11605 6.22571 7.34671 6.15402L8.3009 5.91777ZM5.48166 14.3676C5.91216 14.26 5.91216 14.0815 5.48166 13.9739L4.52748 13.7376C4.29637 13.6655 4.08631 13.5382 3.91548 13.3667C3.74464 13.1952 3.61818 12.9846 3.54704 12.7532L3.30948 11.7991C3.20186 11.3686 3.02467 11.3686 2.91574 11.7991L2.67424 12.7532C2.60255 12.9839 2.47584 13.1937 2.30504 13.3645C2.13424 13.5353 1.92447 13.662 1.6938 13.7337L0.739621 13.9699C0.309124 14.0775 0.309124 14.256 0.739621 14.3637L1.6938 14.6012C1.92507 14.673 2.13529 14.8002 2.30617 14.9717C2.47705 15.1433 2.6034 15.354 2.67424 15.5856L2.9118 16.5385C3.01942 16.9703 3.19661 16.9703 3.30555 16.5385L3.54311 15.5856C3.61449 15.3548 3.7411 15.1448 3.91194 14.974C4.08278 14.8031 4.29272 14.6765 4.52354 14.6052L5.48166 14.3676Z" fill="white"/>
</svg>
