<svg width="28" height="22" viewBox="0 0 28 22" fill="none" xmlns="http://www.w3.org/2000/svg">
<g clip-path="url(#clip0_3779_6921)">
<path d="M12.5002 15.0704C12.5967 15.1854 12.645 15.3333 12.6351 15.483C12.6251 15.6328 12.5577 15.773 12.4469 15.8742C10.6645 17.501 8.86927 18.4114 7.28087 18.4114C6.89036 18.413 6.50197 18.354 6.12954 18.2366C4.1595 17.6055 2.77365 15.3369 2.23636 11.8766C1.75238 8.75948 2.01676 4.94305 2.98259 1.07332C3.00096 0.997182 3.0344 0.925493 3.08094 0.86249C3.12747 0.799486 3.18616 0.746445 3.25353 0.706498C3.3209 0.666552 3.3956 0.640509 3.4732 0.629907C3.55081 0.619306 3.62975 0.624361 3.70537 0.644774L5.77562 1.19912C5.92313 1.23916 6.04897 1.33562 6.12597 1.46766C6.20296 1.5997 6.22492 1.75673 6.18711 1.90483C5.33428 5.34388 5.09122 8.68485 5.50911 11.3691C5.88862 13.8168 6.7116 14.9468 7.14228 15.0832C7.53672 15.209 8.70936 14.8444 10.3404 13.32C10.4012 13.2629 10.4736 13.2194 10.5526 13.1926C10.6316 13.1657 10.7154 13.1561 10.7984 13.1644C10.8815 13.1727 10.9617 13.1987 11.0339 13.2406C11.106 13.2825 11.1684 13.3394 11.2167 13.4074C11.6303 13.9916 12.0631 14.5481 12.5002 15.0704Z" fill="white"/>
<path d="M18.0565 8.03742C17.8475 8.46384 17.6343 8.87675 17.4169 9.27616C17.3703 9.36089 17.3028 9.43231 17.2209 9.48363C17.1389 9.53494 17.0452 9.56446 16.9487 9.56938C16.8521 9.57429 16.7559 9.55444 16.6692 9.5117C16.5825 9.46896 16.5081 9.40477 16.4532 9.3252C15.9601 8.61825 15.5032 7.88671 15.0844 7.13342C15.0378 7.05202 15.0121 6.96038 15.0095 6.86665C15.0069 6.77292 15.0275 6.68 15.0694 6.59614C15.1368 6.46377 15.2529 6.36269 15.3933 6.31418C15.5336 6.26566 15.6873 6.27349 15.8221 6.33602L17.7878 7.26988C17.8562 7.30226 17.9175 7.3479 17.9681 7.40414C18.0186 7.46038 18.0576 7.52611 18.0826 7.59751C18.1076 7.66891 18.1181 7.74457 18.1136 7.82008C18.1092 7.8956 18.0897 7.96948 18.0565 8.03742Z" fill="white"/>
<path d="M25.7641 11.8763C25.2247 15.3452 23.8452 17.6052 21.8645 18.2384C21.492 18.3554 21.1036 18.4136 20.7132 18.4111C19.0075 18.4111 17.0524 17.3451 15.1378 15.4881C14.7569 15.1171 14.3774 14.7113 13.9993 14.2706C13.2571 13.4077 12.5727 12.4967 11.9504 11.5437C11.6348 11.0647 11.3257 10.5672 11.0229 10.0513C10.7031 9.49691 10.3833 8.92125 10.0891 8.32427C10.0362 8.21895 10.005 8.10415 9.99709 7.98659C9.98923 7.86903 10.0049 7.75109 10.0432 7.63968C10.0816 7.52826 10.1418 7.42563 10.2203 7.33779C10.2988 7.24996 10.3941 7.17869 10.5005 7.12817L11.8885 6.46936C12.0983 6.36967 12.3386 6.35579 12.5584 6.43065C12.7782 6.50551 12.9602 6.66322 13.0654 6.87019C13.3618 7.45651 13.6752 8.02578 13.9993 8.57585C14.6108 9.61851 15.2963 10.616 16.0504 11.5608C16.4213 12.0234 16.8008 12.4541 17.1825 12.84C17.3445 13.0085 17.5066 13.1662 17.6686 13.3197C19.2911 14.8442 20.4638 15.2109 20.8667 15.0851C21.2931 14.9465 22.1225 13.8058 22.502 11.371C22.8943 8.75921 22.6811 5.52911 21.8816 2.18814C21.8272 1.96207 21.8637 1.72368 21.9834 1.5243C22.103 1.32491 22.2961 1.18048 22.5212 1.1221L24.0137 0.725529C24.1272 0.694808 24.2458 0.687039 24.3624 0.702677C24.479 0.718315 24.5913 0.757045 24.6927 0.816603C24.7942 0.876161 24.8827 0.95535 24.9532 1.04954C25.0237 1.14373 25.0747 1.25102 25.1032 1.36515C25.9944 5.13894 26.2353 8.84023 25.7641 11.8763Z" fill="white"/>
</g>
<defs>
<clipPath id="clip0_3779_6921">
<rect width="28" height="20.7494" fill="white" transform="translate(0 0.625488)"/>
</clipPath>
</defs>
</svg>
