<svg width="20" height="19" viewBox="0 0 20 19" fill="none" xmlns="http://www.w3.org/2000/svg">
<path d="M19.1629 10.7731C20.279 10.4992 20.279 10.0349 19.1629 9.75551L16.6977 9.14195C15.5828 8.86804 14.4393 7.72035 14.1612 6.60553L13.5477 4.14032C13.2738 3.02413 12.8081 3.02413 12.5301 4.14032L11.9165 6.60553C11.6426 7.72035 10.4936 8.86393 9.37873 9.14195L6.91353 9.75551C5.79871 10.0294 5.79871 10.4951 6.91353 10.7731L9.37873 11.3867C10.4936 11.6606 11.6371 12.8096 11.9165 13.9244L12.5301 16.3896C12.804 17.5045 13.2683 17.5045 13.5477 16.3896L14.1612 13.9244C14.4351 12.8096 15.5828 11.666 16.6977 11.3867L19.1629 10.7731ZM8.22694 4.6498C8.67615 4.53749 8.67615 4.35123 8.22694 4.23893L7.23127 3.99104C6.99041 3.91655 6.77135 3.78444 6.59308 3.60617C6.4148 3.4279 6.2827 3.20884 6.20821 2.96798L5.96032 1.97368C5.84801 1.5231 5.66312 1.5231 5.54945 1.97368L5.30156 2.96798C5.22707 3.20884 5.09496 3.4279 4.91669 3.60617C4.73842 3.78444 4.51936 3.91655 4.2785 3.99104L3.28283 4.23893C2.83362 4.35123 2.83362 4.53749 3.28283 4.6498L4.2785 4.89632C4.51919 4.97112 4.73809 5.10334 4.91631 5.28156C5.09454 5.45979 5.22675 5.67868 5.30156 5.91938L5.54945 6.91505C5.66175 7.36426 5.84664 7.36426 5.96032 6.91505L6.20821 5.91938C6.28301 5.67868 6.41523 5.45979 6.59345 5.28156C6.77168 5.10334 6.99057 4.97112 7.23127 4.89632L8.22694 4.6498ZM5.28512 13.467C5.73434 13.3547 5.73434 13.1684 5.28512 13.0561L4.28946 12.8096C4.0483 12.7344 3.82911 12.6016 3.65085 12.4226C3.47259 12.2436 3.34063 12.0239 3.2664 11.7825L3.01851 10.7868C2.9062 10.3376 2.72131 10.3376 2.60764 10.7868L2.35564 11.7825C2.28083 12.0231 2.14862 12.242 1.97039 12.4203C1.79217 12.5985 1.57327 12.7307 1.33258 12.8055L0.336911 13.052C-0.112304 13.1643 -0.112304 13.3506 0.336911 13.4629L1.33258 13.7108C1.5739 13.7857 1.79326 13.9184 1.97157 14.0974C2.14988 14.2765 2.28173 14.4963 2.35564 14.738L2.60353 15.7323C2.71583 16.1828 2.90072 16.1828 3.0144 15.7323L3.26229 14.738C3.33678 14.4971 3.46888 14.278 3.64716 14.0998C3.82543 13.9215 4.04449 13.7894 4.28535 13.7149L5.28512 13.467Z" fill="#232529"/>
</svg>
