<svg width="18" height="19" viewBox="0 0 18 19" fill="none" xmlns="http://www.w3.org/2000/svg">
<mask id="mask0_6668_19560" style="mask-type:alpha" maskUnits="userSpaceOnUse" x="0" y="0" width="16" height="17">
<rect y="0.194336" width="16" height="16" fill="#D9D9D9"/>
</mask>
<g mask="url(#mask0_6668_19560)">
<path d="M6.74995 13.6941C6.3787 13.6941 6.06089 13.562 5.79651 13.2976C5.53214 13.0332 5.39995 12.7154 5.39995 12.3441V3.34414C5.39995 2.97289 5.53214 2.65508 5.79651 2.3907C6.06089 2.12633 6.3787 1.99414 6.74995 1.99414H13.95C14.3212 1.99414 14.639 2.12633 14.9034 2.3907C15.1678 2.65508 15.3 2.97289 15.3 3.34414V12.3441C15.3 12.7154 15.1678 13.0332 14.9034 13.2976C14.639 13.562 14.3212 13.6941 13.95 13.6941H6.74995ZM6.74995 12.3441H13.95V3.34414H6.74995V12.3441ZM4.04995 16.3941C3.6787 16.3941 3.36089 16.262 3.09651 15.9976C2.83214 15.7332 2.69995 15.4154 2.69995 15.0441V4.69414H4.04995V15.0441H12.6V16.3941H4.04995Z" fill="#232529"/>
</g>
</svg>
