<svg width="18" height="19" viewBox="0 0 18 19" fill="none" xmlns="http://www.w3.org/2000/svg">
<g clip-path="url(#clip0_6668_19573)">
<mask id="mask0_6668_19573" style="mask-type:alpha" maskUnits="userSpaceOnUse" x="0" y="0" width="20" height="21">
<rect x="20" y="0.194336" width="20" height="20" transform="rotate(90 20 0.194336)" fill="#D9D9D9"/>
</mask>
<g mask="url(#mask0_6668_19573)">
<path d="M9 15.4944L5.00625 12.3069C4.84375 12.1694 4.71875 12.0092 4.63125 11.8262C4.54375 11.6433 4.5 11.4473 4.5 11.2382L4.5 5.14443C4.5 4.77318 4.63219 4.45537 4.89656 4.191C5.16094 3.92662 5.47875 3.79443 5.85 3.79443L12.15 3.79443C12.5213 3.79443 12.8391 3.92662 13.1034 4.191C13.3678 4.45537 13.5 4.77318 13.5 5.14443L13.5 11.2382C13.5 11.4473 13.4562 11.6433 13.3687 11.8262C13.2812 12.0092 13.1562 12.1694 12.9937 12.3069L9 15.4944ZM9 13.7694L12.15 11.2382L12.15 5.14443L5.85 5.14443L5.85 11.2382L9 13.7694Z" fill="#232529"/>
</g>
</g>
<defs>
<clipPath id="clip0_6668_19573">
<rect width="18" height="18" fill="white" transform="translate(0 0.194336)"/>
</clipPath>
</defs>
</svg>
