<svg width="18" height="19" viewBox="0 0 18 19" fill="none" xmlns="http://www.w3.org/2000/svg">
<g clip-path="url(#clip0_6668_18217)">
<mask id="mask0_6668_18217" style="mask-type:alpha" maskUnits="userSpaceOnUse" x="0" y="0" width="20" height="21">
<rect y="0.194336" width="20" height="20" fill="#D9D9D9"/>
</mask>
<g mask="url(#mask0_6668_18217)">
<path d="M9.15003 16.3941L12.3563 7.84414H13.8938L17.1 16.3941H15.6188L14.85 14.2004H11.4L10.6313 16.3941H9.15003ZM3.16877 14.1441L2.23127 13.1879L5.83127 9.62539C5.38127 9.15039 4.96252 8.65664 4.57502 8.14414C4.18752 7.63164 3.85002 7.07539 3.56252 6.47539H5.10002C5.32503 6.87539 5.55002 7.21602 5.77502 7.49727C6.00002 7.77852 6.32502 8.15664 6.75002 8.63164C7.22502 8.10664 7.66252 7.55977 8.06252 6.99102C8.46252 6.42227 8.78753 5.80664 9.03753 5.14414H0.900024V3.79414H6.07502V1.99414H7.42502V3.79414H12.6V5.14414H10.4625C10.2 6.00664 9.81878 6.80351 9.31878 7.53477C8.81878 8.26602 8.26877 8.96289 7.66877 9.62539L9.37502 11.3129L8.85003 12.7004L6.75002 10.6004L3.16877 14.1441ZM11.85 12.9629H14.4L13.1625 9.41914L11.85 12.9629Z" fill="#232529"/>
</g>
</g>
<defs>
<clipPath id="clip0_6668_18217">
<rect width="18" height="18" fill="white" transform="translate(0 0.194336)"/>
</clipPath>
</defs>
</svg>
