<svg width="19" height="19" viewBox="0 0 19 19" fill="none" xmlns="http://www.w3.org/2000/svg">
<g clip-path="url(#clip0_5720_9112)">
<mask id="mask0_5720_9112" style="mask-type:alpha" maskUnits="userSpaceOnUse" x="0" y="0" width="21" height="21">
<rect x="0.599121" y="0.64502" width="20" height="20" fill="#D9D9D9"/>
</mask>
<g mask="url(#mask0_5720_9112)">
<path d="M9.60442 16.8449C8.61342 16.8449 7.68042 16.6574 6.80542 16.2824C5.93042 15.9074 5.1648 15.3918 4.50854 14.7355C3.85229 14.0793 3.33667 13.3139 2.96167 12.4394C2.58667 11.5649 2.39917 10.6305 2.39917 9.6363C2.39917 8.64205 2.58667 7.71055 2.96167 6.8418C3.33667 5.97305 3.85229 5.21055 4.50854 4.5543C5.1648 3.89805 5.92923 3.38242 6.80186 3.00742C7.67448 2.63242 8.60692 2.44492 9.59917 2.44492C10.0617 2.44492 10.521 2.48555 10.9773 2.5668C11.4335 2.64805 11.8742 2.77736 12.2992 2.95473V4.45117C11.8742 4.23867 11.4367 4.07617 10.9867 3.96367C10.5367 3.85117 10.0742 3.79492 9.59917 3.79492C7.9783 3.79492 6.59805 4.36511 5.45842 5.50548C4.31892 6.64586 3.74917 8.02711 3.74917 9.64923C3.74917 11.2714 4.31936 12.6512 5.45973 13.7887C6.60011 14.9262 7.98136 15.4949 9.60348 15.4949C11.2256 15.4949 12.6054 14.9252 13.7429 13.7857C14.8804 12.646 15.4492 11.2658 15.4492 9.64492C15.4492 9.16667 15.3929 8.70336 15.2804 8.25498C15.1679 7.80661 15.0054 7.36992 14.7929 6.94492H16.2929C16.4679 7.38242 16.596 7.82617 16.6773 8.27617C16.7585 8.72617 16.7992 9.18242 16.7992 9.64492C16.7992 10.6372 16.6117 11.5696 16.2367 12.4422C15.8617 13.3149 15.346 14.0793 14.6898 14.7355C14.0335 15.3918 13.2697 15.9074 12.3982 16.2824C11.5265 16.6574 10.5953 16.8449 9.60442 16.8449ZM14.9992 5.59492V4.24492H13.6492V2.89492H14.9992V1.54492H16.3492V2.89492H17.6992V4.24492H16.3492V5.59492H14.9992ZM12.0742 8.96992C12.3867 8.96992 12.6523 8.86055 12.871 8.6418C13.0898 8.42305 13.1992 8.15742 13.1992 7.84492C13.1992 7.53242 13.0898 7.2668 12.871 7.04805C12.6523 6.8293 12.3867 6.71992 12.0742 6.71992C11.7617 6.71992 11.496 6.8293 11.2773 7.04805C11.0585 7.2668 10.9492 7.53242 10.9492 7.84492C10.9492 8.15742 11.0585 8.42305 11.2773 8.6418C11.496 8.86055 11.7617 8.96992 12.0742 8.96992ZM7.12417 8.96992C7.43667 8.96992 7.7023 8.86055 7.92105 8.6418C8.1398 8.42305 8.24917 8.15742 8.24917 7.84492C8.24917 7.53242 8.1398 7.2668 7.92105 7.04805C7.7023 6.8293 7.43667 6.71992 7.12417 6.71992C6.81167 6.71992 6.54605 6.8293 6.3273 7.04805C6.10855 7.2668 5.99917 7.53242 5.99917 7.84492C5.99917 8.15742 6.10855 8.42305 6.3273 8.6418C6.54605 8.86055 6.81167 8.96992 7.12417 8.96992ZM9.59917 13.2449C10.3492 13.2449 11.0398 13.0512 11.671 12.6637C12.3023 12.2762 12.7992 11.7512 13.1617 11.0887H6.03667C6.39917 11.7512 6.89605 12.2762 7.5273 12.6637C8.15855 13.0512 8.84917 13.2449 9.59917 13.2449Z" fill="#232529"/>
</g>
</g>
<defs>
<clipPath id="clip0_5720_9112">
<rect x="0.599121" y="0.64502" width="18" height="18" rx="5" fill="white"/>
</clipPath>
</defs>
</svg>
