<svg width="21" height="21" viewBox="0 0 21 21" fill="none" xmlns="http://www.w3.org/2000/svg">
<mask id="mask0_4684_3286" style="mask-type:alpha" maskUnits="userSpaceOnUse" x="0" y="0" width="21" height="21">
<rect x="0.599121" y="0.64502" width="20" height="20" fill="#D9D9D9"/>
</mask>
<g mask="url(#mask0_4684_3286)">
<path d="M16.5991 6.14502V4.64502H15.0991V3.14502H16.5991V1.64502H18.0991V3.14502H19.5991V4.64502H18.0991V6.14502H16.5991ZM13.3491 9.89502C13.6963 9.89502 13.9915 9.77349 14.2345 9.53044C14.4776 9.28738 14.5991 8.99224 14.5991 8.64502C14.5991 8.2978 14.4776 8.00266 14.2345 7.7596C13.9915 7.51655 13.6963 7.39502 13.3491 7.39502C13.0019 7.39502 12.7068 7.51655 12.4637 7.7596C12.2206 8.00266 12.0991 8.2978 12.0991 8.64502C12.0991 8.99224 12.2206 9.28738 12.4637 9.53044C12.7068 9.77349 13.0019 9.89502 13.3491 9.89502ZM7.84912 9.89502C8.19634 9.89502 8.49148 9.77349 8.73454 9.53044C8.97759 9.28738 9.09912 8.99224 9.09912 8.64502C9.09912 8.2978 8.97759 8.00266 8.73454 7.7596C8.49148 7.51655 8.19634 7.39502 7.84912 7.39502C7.5019 7.39502 7.20676 7.51655 6.9637 7.7596C6.72065 8.00266 6.59912 8.2978 6.59912 8.64502C6.59912 8.99224 6.72065 9.28738 6.9637 9.53044C7.20676 9.77349 7.5019 9.89502 7.84912 9.89502ZM10.5991 14.645C11.4325 14.645 12.1998 14.4297 12.9012 13.9992C13.6026 13.5686 14.1547 12.9853 14.5575 12.2492H6.64079C7.04357 12.9853 7.59565 13.5686 8.29704 13.9992C8.99843 14.4297 9.76579 14.645 10.5991 14.645ZM10.605 18.645C9.50384 18.645 8.46718 18.4367 7.49495 18.02C6.52273 17.6034 5.67204 17.0304 4.94287 16.3013C4.2137 15.5721 3.64079 14.7217 3.22412 13.75C2.80745 12.7784 2.59912 11.7402 2.59912 10.6354C2.59912 9.53071 2.80745 8.49571 3.22412 7.53044C3.64079 6.56516 4.2137 5.71794 4.94287 4.98877C5.67204 4.2596 6.52141 3.68669 7.491 3.27002C8.46058 2.85335 9.49662 2.64502 10.5991 2.64502C11.113 2.64502 11.6234 2.69016 12.1304 2.78044C12.6373 2.87071 13.1269 3.00995 13.5991 3.19814V6.14502H15.0991V7.64502H18.0366C18.2311 8.13113 18.3734 8.62419 18.4637 9.12419C18.554 9.62419 18.5991 10.1311 18.5991 10.645C18.5991 11.7475 18.3908 12.7836 17.9741 13.7531C17.5575 14.7227 16.9845 15.5721 16.2554 16.3013C15.5262 17.0304 14.6775 17.6034 13.7091 18.02C12.7406 18.4367 11.7059 18.645 10.605 18.645Z" fill="#232529"/>
</g>
</svg>
