<svg width="21" height="21" viewBox="0 0 21 21" fill="none" xmlns="http://www.w3.org/2000/svg">
<mask id="mask0_4684_3283" style="mask-type:alpha" maskUnits="userSpaceOnUse" x="0" y="0" width="21" height="21">
<rect x="0.599121" y="0.64502" width="20" height="20" fill="#D9D9D9"/>
</mask>
<g mask="url(#mask0_4684_3283)">
<path d="M15.0991 14.145C15.0991 15.3931 14.6611 16.4551 13.7852 17.3311C12.9092 18.207 11.8472 18.645 10.5991 18.645C9.33523 18.645 8.26926 18.1902 7.4012 17.2804C6.53315 16.3707 6.09912 15.277 6.09912 13.9992V5.89502C6.09912 4.99224 6.41509 4.22488 7.04704 3.59294C7.67898 2.96099 8.44634 2.64502 9.34912 2.64502C10.2658 2.64502 11.0366 2.97835 11.6616 3.64502C12.2866 4.31169 12.5991 5.1103 12.5991 6.04085V13.645C12.5991 14.2027 12.4052 14.6754 12.0172 15.0631C11.6295 15.4511 11.1568 15.645 10.5991 15.645C10.0297 15.645 9.55398 15.443 9.17204 15.039C8.79009 14.635 8.59912 14.1425 8.59912 13.5617V5.64502H10.0991V13.645C10.0991 13.7895 10.1463 13.9089 10.2408 14.0034C10.3352 14.0978 10.4547 14.145 10.5991 14.145C10.7436 14.145 10.863 14.0978 10.9575 14.0034C11.0519 13.9089 11.0991 13.7895 11.0991 13.645V5.89502C11.0991 5.40891 10.929 4.99571 10.5887 4.65544C10.2484 4.31516 9.83384 4.14502 9.34495 4.14502C8.8562 4.14502 8.44301 4.3221 8.10537 4.67627C7.76787 5.03044 7.59912 5.45058 7.59912 5.93669V14.145C7.59912 14.9784 7.89079 15.6832 8.47412 16.2596C9.05745 16.836 9.76579 17.1311 10.5991 17.145C11.4325 17.1589 12.1408 16.8603 12.7241 16.2492C13.3075 15.6381 13.5991 14.902 13.5991 14.0409V5.64502H15.0991V14.145Z" fill="#232529"/>
</g>
</svg>
