<svg width="19" height="19" viewBox="0 0 19 19" fill="none" xmlns="http://www.w3.org/2000/svg">
<g clip-path="url(#clip0_5720_9107)">
<mask id="mask0_5720_9107" style="mask-type:alpha" maskUnits="userSpaceOnUse" x="0" y="0" width="21" height="21">
<rect x="0.599121" y="0.64502" width="20" height="20" fill="#D9D9D9"/>
</mask>
<g mask="url(#mask0_5720_9107)">
<path d="M13.6491 12.7948C13.6491 13.9181 13.2549 14.8739 12.4665 15.6623C11.6781 16.4506 10.7223 16.8448 9.59907 16.8448C8.46157 16.8448 7.5022 16.4354 6.72095 15.6167C5.9397 14.7979 5.54907 13.8136 5.54907 12.6636V5.36982C5.54907 4.55732 5.83345 3.8667 6.4022 3.29795C6.97095 2.7292 7.66157 2.44482 8.47407 2.44482C9.29907 2.44482 9.99282 2.74482 10.5553 3.34482C11.1178 3.94482 11.3991 4.66357 11.3991 5.50107V12.3448C11.3991 12.8467 11.2245 13.2721 10.8754 13.6211C10.5264 13.9703 10.1009 14.1448 9.59907 14.1448C9.08657 14.1448 8.65845 13.963 8.3147 13.5994C7.97095 13.2358 7.79907 12.7926 7.79907 12.2698V5.14482H9.14907V12.3448C9.14907 12.4748 9.19157 12.5823 9.27657 12.6673C9.36157 12.7523 9.46907 12.7948 9.59907 12.7948C9.72907 12.7948 9.83657 12.7523 9.92157 12.6673C10.0066 12.5823 10.0491 12.4748 10.0491 12.3448V5.36982C10.0491 4.93232 9.89595 4.56045 9.5897 4.2542C9.28345 3.94795 8.91032 3.79482 8.47032 3.79482C8.03045 3.79482 7.65857 3.9542 7.3547 4.27295C7.05095 4.5917 6.89907 4.96982 6.89907 5.40732V12.7948C6.89907 13.5448 7.16157 14.1792 7.68657 14.6979C8.21157 15.2167 8.84907 15.4823 9.59907 15.4948C10.3491 15.5073 10.9866 15.2386 11.5116 14.6886C12.0366 14.1386 12.2991 13.4761 12.2991 12.7011V5.14482H13.6491V12.7948Z" fill="#232529"/>
</g>
</g>
<defs>
<clipPath id="clip0_5720_9107">
<rect x="0.599121" y="0.64502" width="18" height="18" rx="5" fill="white"/>
</clipPath>
</defs>
</svg>
