<svg width="20" height="20" viewBox="0 0 20 20" fill="none" xmlns="http://www.w3.org/2000/svg">
<g clip-path="url(#clip0_4652_3178)">
<mask id="mask0_4652_3178" style="mask-type:alpha" maskUnits="userSpaceOnUse" x="0" y="0" width="20" height="20">
<rect width="20" height="20" fill="#D9D9D9"/>
</mask>
<g mask="url(#mask0_4652_3178)">
<path d="M7.99992 12.9997H11.9999V11.9997H9.56242L11.9999 9.99967V8.99967H7.99992V9.99967H10.4374L7.99992 11.9997V12.9997ZM9.99992 17.9997C9.0277 17.9997 8.11707 17.815 7.26804 17.4455C6.41888 17.0761 5.67999 16.577 5.05138 15.9482C4.42263 15.3196 3.92353 14.5807 3.55409 13.7316C3.18464 12.8825 2.99992 11.9719 2.99992 10.9997C2.99992 10.0275 3.18464 9.11683 3.55409 8.2678C3.92353 7.41863 4.42263 6.67974 5.05138 6.05113C5.67999 5.42238 6.41888 4.92329 7.26804 4.55384C8.11707 4.1844 9.0277 3.99967 9.99992 3.99967C10.9721 3.99967 11.8828 4.1844 12.7318 4.55384C13.581 4.92329 14.3198 5.42238 14.9485 6.05113C15.5772 6.67974 16.0763 7.41863 16.4458 8.2678C16.8152 9.11683 16.9999 10.0275 16.9999 10.9997C16.9999 11.9719 16.8152 12.8825 16.4458 13.7316C16.0763 14.5807 15.5772 15.3196 14.9485 15.9482C14.3198 16.577 13.581 17.0761 12.7318 17.4455C11.8828 17.815 10.9721 17.9997 9.99992 17.9997ZM4.93742 2.39551L5.99992 3.45801L2.45825 6.99967L1.39575 5.93717L4.93742 2.39551ZM15.0624 2.39551L18.6041 5.93717L17.5416 6.99967L13.9999 3.45801L15.0624 2.39551ZM9.99534 16.4997C11.5262 16.4997 12.8263 15.9665 13.8958 14.9001C14.9652 13.8337 15.4999 12.5351 15.4999 11.0043C15.4999 9.47342 14.9667 8.17329 13.9003 7.10384C12.8339 6.0344 11.5353 5.49967 10.0045 5.49967C8.47367 5.49967 7.17353 6.03287 6.10409 7.09926C5.03464 8.16565 4.49992 9.46426 4.49992 10.9951C4.49992 12.5259 5.03311 13.8261 6.0995 14.8955C7.16589 15.965 8.4645 16.4997 9.99534 16.4997Z" fill="#232529"/>
</g>
</g>
<defs>
<clipPath id="clip0_4652_3178">
<rect width="20" height="20" fill="white"/>
</clipPath>
</defs>
</svg>
