<svg width="18" height="18" viewBox="0 0 18 18" fill="none" xmlns="http://www.w3.org/2000/svg">
<mask id="mask0_4652_3186" style="mask-type:alpha" maskUnits="userSpaceOnUse" x="0" y="0" width="18" height="18">
<rect width="17.7778" height="17.7778" transform="matrix(-1 0 0 1 17.7778 0)" fill="#D9D9D9"/>
</mask>
<g mask="url(#mask0_4652_3186)">
<mask id="mask1_4652_3186" style="mask-type:alpha" maskUnits="userSpaceOnUse" x="0" y="0" width="18" height="18">
<rect width="17.7778" height="17.7778" transform="matrix(-1 0 0 1 17.7778 0)" fill="#D9D9D9"/>
</mask>
<g mask="url(#mask1_4652_3186)">
<path d="M15.5 17C15.9028 17 16.2535 16.8507 16.5521 16.5521C16.8507 16.2535 17 15.9028 17 15.5V4.5C17 4.0875 16.8507 3.73438 16.5521 3.44063C16.2535 3.14688 15.9028 3 15.5 3H4.5C4.0875 3 3.73438 3.14688 3.44063 3.44063C3.14688 3.73438 3 4.0875 3 4.5V15.5C3 15.9028 3.14688 16.2535 3.44063 16.5521C3.73438 16.8507 4.0875 17 4.5 17H15.5ZM10 13C9.44444 13 8.97222 12.8056 8.58333 12.4167C8.19444 12.0278 8 11.5556 8 11H4.5V4.5H15.5V11H12C12 11.5556 11.8056 12.0278 11.4167 12.4167C11.0278 12.8056 10.5556 13 10 13ZM10 11L13 8L11.9375 6.9375L10 8.875L9.25 8.125L8.0625 6.9375L7 8L10 11Z" fill="white"/>
</g>
</g>
</svg>
