<svg width="16" height="16" viewBox="0 0 16 16" fill="none" xmlns="http://www.w3.org/2000/svg">
<g clip-path="url(#clip0_6424_6907)">
<mask id="mask0_6424_6907" style="mask-type:alpha" maskUnits="userSpaceOnUse" x="0" y="0" width="20" height="20">
<rect width="20" height="20" fill="#D9D9D9"/>
</mask>
<g mask="url(#mask0_6424_6907)">
<path d="M6.00002 11.9996C5.67002 11.9996 5.38752 11.8821 5.15252 11.6471C4.91752 11.4121 4.80002 11.1296 4.80002 10.7996V2.79961C4.80002 2.46961 4.91752 2.18711 5.15252 1.95211C5.38752 1.71711 5.67002 1.59961 6.00002 1.59961H12.4C12.73 1.59961 13.0125 1.71711 13.2475 1.95211C13.4825 2.18711 13.6 2.46961 13.6 2.79961V10.7996C13.6 11.1296 13.4825 11.4121 13.2475 11.6471C13.0125 11.8821 12.73 11.9996 12.4 11.9996H6.00002ZM6.00002 10.7996H12.4V2.79961H6.00002V10.7996ZM3.60002 14.3996C3.27002 14.3996 2.98752 14.2821 2.75252 14.0471C2.51752 13.8121 2.40002 13.5296 2.40002 13.1996V3.99961H3.60002V13.1996H11.2V14.3996H3.60002Z" fill="#303030"/>
</g>
</g>
<defs>
<clipPath id="clip0_6424_6907">
<rect width="16" height="16" fill="white"/>
</clipPath>
</defs>
</svg>
