<svg width="20" height="20" viewBox="0 0 20 20" fill="none" xmlns="http://www.w3.org/2000/svg">
<mask id="mask0_4652_3159" style="mask-type:alpha" maskUnits="userSpaceOnUse" x="0" y="0" width="20" height="20">
<rect x="0.5" y="0.302734" width="19" height="19" fill="#D9D9D9"/>
</mask>
<g mask="url(#mask0_4652_3159)">
<path d="M5.72089 11.2279C5.32783 11.2279 4.99276 11.088 4.71567 10.8081C4.43859 10.5283 4.30005 10.1918 4.30005 9.79877C4.30005 9.40571 4.43998 9.07064 4.71983 8.79355C4.99968 8.51647 5.33614 8.37793 5.7292 8.37793C6.12227 8.37793 6.45734 8.51786 6.73442 8.79771C7.01151 9.07757 7.15005 9.41402 7.15005 9.80709C7.15005 10.2001 7.01012 10.5352 6.73027 10.8123C6.45041 11.0894 6.11396 11.2279 5.72089 11.2279ZM9.99589 11.2279C9.60283 11.2279 9.26776 11.088 8.99067 10.8081C8.71359 10.5283 8.57505 10.1918 8.57505 9.79877C8.57505 9.40571 8.71498 9.07064 8.99483 8.79355C9.27468 8.51647 9.61114 8.37793 10.0042 8.37793C10.3973 8.37793 10.7323 8.51786 11.0094 8.79771C11.2865 9.07757 11.425 9.41402 11.425 9.80709C11.425 10.2001 11.2851 10.5352 11.0053 10.8123C10.7254 11.0894 10.389 11.2279 9.99589 11.2279ZM14.2709 11.2279C13.8778 11.2279 13.5428 11.088 13.2657 10.8081C12.9886 10.5283 12.85 10.1918 12.85 9.79877C12.85 9.40571 12.99 9.07064 13.2698 8.79355C13.5497 8.51647 13.8861 8.37793 14.2792 8.37793C14.6723 8.37793 15.0073 8.51786 15.2844 8.79771C15.5615 9.07757 15.7 9.41402 15.7 9.80709C15.7 10.2001 15.5601 10.5352 15.2803 10.8123C15.0004 11.0894 14.664 11.2279 14.2709 11.2279Z" fill="#232529"/>
</g>
</svg>
