<svg width="21" height="19" viewBox="0 0 21 19" fill="none" xmlns="http://www.w3.org/2000/svg">
<path d="M19.762 11.2238C20.8782 10.9499 20.8782 10.4856 19.762 10.2062L17.2968 9.59263C16.182 9.31872 15.0384 8.17103 14.7604 7.05621L14.1468 4.591C13.8729 3.47481 13.4072 3.47481 13.1292 4.591L12.5156 7.05621C12.2417 8.17103 11.0927 9.31461 9.97786 9.59263L7.51265 10.2062C6.39783 10.4801 6.39783 10.9458 7.51265 11.2238L9.97786 11.8373C11.0927 12.1112 12.2363 13.2603 12.5156 14.3751L13.1292 16.8403C13.4031 17.9552 13.8674 17.9552 14.1468 16.8403L14.7604 14.3751C15.0343 13.2603 16.182 12.1167 17.2968 11.8373L19.762 11.2238ZM8.82606 5.10048C9.27527 4.98818 9.27527 4.80192 8.82606 4.68961L7.83039 4.44172C7.58953 4.36723 7.37047 4.23513 7.1922 4.05685C7.01393 3.87858 6.88182 3.65952 6.80733 3.41866L6.55944 2.42436C6.44713 1.97378 6.26224 1.97378 6.14857 2.42436L5.90068 3.41866C5.82619 3.65952 5.69408 3.87858 5.51581 4.05685C5.33754 4.23513 5.11848 4.36723 4.87762 4.44172L3.88195 4.68961C3.43274 4.80192 3.43274 4.98818 3.88195 5.10048L4.87762 5.347C5.11831 5.42181 5.33721 5.55402 5.51543 5.73225C5.69366 5.91047 5.82587 6.12937 5.90068 6.37006L6.14857 7.36573C6.26087 7.81494 6.44577 7.81494 6.55944 7.36573L6.80733 6.37006C6.88213 6.12937 7.01435 5.91047 7.19258 5.73225C7.3708 5.55402 7.58969 5.42181 7.83039 5.347L8.82606 5.10048ZM5.88425 13.9177C6.33346 13.8054 6.33346 13.6191 5.88425 13.5068L4.88858 13.2603C4.64742 13.1851 4.42823 13.0523 4.24997 12.8733C4.07171 12.6943 3.93975 12.4746 3.86552 12.2331L3.61763 11.2375C3.50532 10.7883 3.32043 10.7883 3.20676 11.2375L2.95476 12.2331C2.87995 12.4738 2.74774 12.6927 2.56951 12.871C2.39129 13.0492 2.17239 13.1814 1.9317 13.2562L0.936032 13.5027C0.486817 13.615 0.486817 13.8013 0.936032 13.9136L1.9317 14.1615C2.17302 14.2364 2.39238 14.3691 2.57069 14.5481C2.749 14.7271 2.88085 14.947 2.95476 15.1886L3.20265 16.1829C3.31496 16.6335 3.49985 16.6335 3.61352 16.1829L3.86141 15.1886C3.9359 14.9478 4.06801 14.7287 4.24628 14.5505C4.42455 14.3722 4.64361 14.2401 4.88447 14.1656L5.88425 13.9177Z" fill="#232529"/>
</svg>
