<svg width="21" height="20" viewBox="0 0 21 20" fill="none" xmlns="http://www.w3.org/2000/svg">
<g clip-path="url(#clip0_6668_10246)">
<mask id="mask0_6668_10246" style="mask-type:alpha" maskUnits="userSpaceOnUse" x="0" y="0" width="21" height="20">
<rect x="0.5" width="20" height="20" fill="#D9D9D9"/>
</mask>
<g mask="url(#mask0_6668_10246)">
<path d="M4.5 15.5V14H5.5V9C5.5 7.79167 5.87153 6.72917 6.61458 5.8125C7.35764 4.89583 8.31944 4.32639 9.5 4.10417V3C9.5 2.72222 9.59722 2.48611 9.79167 2.29167C9.98611 2.09722 10.2222 2 10.5 2C10.7778 2 11.0139 2.09722 11.2083 2.29167C11.4028 2.48611 11.5 2.72222 11.5 3V4.10417C12.6806 4.32639 13.6424 4.89583 14.3854 5.8125C15.1285 6.72917 15.5 7.79167 15.5 9V14H16.5V15.5H4.5ZM10.4956 18C10.0819 18 9.72917 17.8531 9.4375 17.5594C9.14583 17.2656 9 16.9125 9 16.5H12C12 16.9167 11.8527 17.2708 11.5581 17.5625C11.2635 17.8542 10.9094 18 10.4956 18ZM7 14H14V9C14 8.02778 13.6597 7.20139 12.9792 6.52083C12.2986 5.84028 11.4722 5.5 10.5 5.5C9.52778 5.5 8.70139 5.84028 8.02083 6.52083C7.34028 7.20139 7 8.02778 7 9V14Z" fill="#E1E1E1"/>
</g>
</g>
<defs>
<clipPath id="clip0_6668_10246">
<rect width="20" height="20" fill="white" transform="translate(0.5)"/>
</clipPath>
</defs>
</svg>
