<svg width="20" height="20" viewBox="0 0 20 20" fill="none" xmlns="http://www.w3.org/2000/svg">
<mask id="mask0_4809_3819" style="mask-type:alpha" maskUnits="userSpaceOnUse" x="0" y="0" width="20" height="20">
<rect width="20" height="20" transform="matrix(-1 0 0 1 20 0)" fill="#D9D9D9"/>
</mask>
<g mask="url(#mask0_4809_3819)">
<path d="M6.5 13.25V6.75L10 10L6.5 13.25ZM15.6042 17C15.9881 17 16.3167 16.8633 16.59 16.59C16.8633 16.3167 17 15.9881 17 15.6042V4.39583C17 4.01194 16.8633 3.68333 16.59 3.41C16.3167 3.13667 15.9881 3 15.6042 3H4.39583C4.01194 3 3.68333 3.13667 3.41 3.41C3.13667 3.68333 3 4.01194 3 4.39583V15.6042C3 15.9881 3.13667 16.3167 3.41 16.59C3.68333 16.8633 4.01194 17 4.39583 17H15.6042ZM13 15.5V4.5H15.5V15.5H13ZM11.5 15.5H4.5V4.5H11.5V15.5Z" fill="#232529"/>
</g>
</svg>
