<svg width="15" height="12" viewBox="0 0 15 12" fill="none" xmlns="http://www.w3.org/2000/svg">
<path d="M13.85 11.4001H2.14999C1.77874 11.4001 1.46093 11.2679 1.19655 11.0035C0.932175 10.7392 0.799988 10.4213 0.799988 10.0501V7.3501C1.17124 7.3501 1.48905 7.21754 1.75343 6.95241C2.0178 6.68729 2.14999 6.36854 2.14999 5.99616C2.14999 5.62379 2.0178 5.30541 1.75343 5.04104C1.48905 4.77666 1.17124 4.64447 0.799988 4.64447V1.94447C0.799988 1.57322 0.932175 1.25635 1.19655 0.993848C1.46093 0.731348 1.77874 0.600098 2.14999 0.600098H13.85C14.2212 0.600098 14.5391 0.732286 14.8034 0.996661C15.0678 1.26104 15.2 1.57885 15.2 1.9501V4.6501C14.8287 4.6501 14.5109 4.78266 14.2466 5.04779C13.9822 5.31291 13.85 5.63166 13.85 6.00404C13.85 6.37641 13.9822 6.69479 14.2466 6.95916C14.5109 7.22354 14.8287 7.35572 15.2 7.35572V10.0557C15.2 10.427 15.0678 10.7438 14.8034 11.0063C14.5391 11.2688 14.2212 11.4001 13.85 11.4001ZM13.85 10.0501V8.34385C13.45 8.10635 13.125 7.78135 12.875 7.36885C12.625 6.95635 12.5 6.5001 12.5 6.0001C12.5 5.5001 12.625 5.04385 12.875 4.63135C13.125 4.21885 13.45 3.89385 13.85 3.65635V1.9501H2.14999V3.65635C2.54999 3.89385 2.87499 4.21885 3.12499 4.63135C3.37499 5.04385 3.49999 5.5001 3.49999 6.0001C3.49999 6.5001 3.37499 6.95635 3.12499 7.36885C2.87499 7.78135 2.54999 8.10635 2.14999 8.34385V10.0501H13.85Z" fill="#232529"/>
</svg>
