<svg width="16" height="12" viewBox="0 0 16 12" fill="none" xmlns="http://www.w3.org/2000/svg">
<path d="M13.8374 11.5944H2.13741C1.76616 11.5944 1.44835 11.4622 1.18398 11.1979C0.919602 10.9335 0.787415 10.6157 0.787415 10.2444V7.54443C1.15866 7.54443 1.47648 7.41187 1.74085 7.14675C2.00523 6.88162 2.13741 6.56287 2.13741 6.1905C2.13741 5.81812 2.00523 5.49975 1.74085 5.23537C1.47648 4.971 1.15866 4.83881 0.787415 4.83881V2.13881C0.787415 1.76756 0.919602 1.45068 1.18398 1.18818C1.44835 0.925684 1.76616 0.794434 2.13741 0.794434H13.8374C14.2087 0.794434 14.5265 0.926622 14.7909 1.191C15.0552 1.45537 15.1874 1.77318 15.1874 2.14443V4.84443C14.8162 4.84443 14.4984 4.977 14.234 5.24212C13.9696 5.50725 13.8374 5.826 13.8374 6.19837C13.8374 6.57075 13.9696 6.88912 14.234 7.1535C14.4984 7.41787 14.8162 7.55006 15.1874 7.55006V10.2501C15.1874 10.6213 15.0552 10.9382 14.7909 11.2007C14.5265 11.4632 14.2087 11.5944 13.8374 11.5944ZM13.8374 10.2444V8.53818C13.4374 8.30068 13.1124 7.97568 12.8624 7.56318C12.6124 7.15068 12.4874 6.69443 12.4874 6.19443C12.4874 5.69443 12.6124 5.23818 12.8624 4.82568C13.1124 4.41318 13.4374 4.08818 13.8374 3.85068V2.14443H2.13741V3.85068C2.53741 4.08818 2.86241 4.41318 3.11241 4.82568C3.36241 5.23818 3.48741 5.69443 3.48741 6.19443C3.48741 6.69443 3.36241 7.15068 3.11241 7.56318C2.86241 7.97568 2.53741 8.30068 2.13741 8.53818V10.2444H13.8374Z" fill="#232529"/>
</svg>
