<svg width="21" height="21" viewBox="0 0 21 21" fill="none" xmlns="http://www.w3.org/2000/svg">
<g clip-path="url(#clip0_1974_17718)">
<path d="M18.8882 10.418C18.8882 5.99973 15.3064 2.41797 10.8882 2.41797C6.46994 2.41797 2.88818 5.99973 2.88818 10.418C2.88818 14.1696 5.47122 17.3178 8.9557 18.1825V12.8628H7.3061V10.418H8.9557V9.36453C8.9557 6.64165 10.188 5.37957 12.8613 5.37957C13.3682 5.37957 14.2427 5.47909 14.6005 5.57829V7.79429C14.4117 7.77445 14.0837 7.76453 13.6763 7.76453C12.3647 7.76453 11.8578 8.26149 11.8578 9.55333V10.418H14.4709L14.0219 12.8628H11.8578V18.3594C15.8191 17.881 18.8885 14.5082 18.8885 10.418H18.8882Z" fill="#0866FF"/>
<path d="M14.0215 12.8631L14.4705 10.4183H11.8573V9.55364C11.8573 8.2618 12.3642 7.76484 13.6759 7.76484C14.0833 7.76484 14.4113 7.77476 14.6001 7.7946V5.5786C14.2423 5.47908 13.3677 5.37988 12.8609 5.37988C10.1876 5.37988 8.95526 6.64196 8.95526 9.36484V10.4183H7.30566V12.8631H8.95526V18.1828C9.57414 18.3364 10.2215 18.4183 10.8877 18.4183C11.2157 18.4183 11.5393 18.3981 11.857 18.3597V12.8631H14.0212H14.0215Z" fill="white"/>
</g>
<defs>
<clipPath id="clip0_1974_17718">
<rect width="16" height="16" fill="white" transform="translate(2.88818 2.41797)"/>
</clipPath>
</defs>
</svg>
