<svg width="21" height="21" viewBox="0 0 21 21" fill="none" xmlns="http://www.w3.org/2000/svg">
<g clip-path="url(#clip0_1974_17722)">
<path d="M6.74003 16.0477V10.0957L3.18448 7.45508V14.7902C3.18448 15.6285 3.61808 16.0477 4.48529 16.0477" fill="#4285F4"/>
<path d="M6.74002 10.1218L10.8882 13.381L15.0363 10.1218V5.97363L10.8882 9.23289L6.74002 5.97363" fill="#EA4335"/>
<path d="M15.0363 16.0477V10.0957L18.5919 7.45508V14.7902C18.5919 15.6285 18.1583 16.0477 17.2911 16.0477" fill="#34A853"/>
<path d="M3.18457 7.52837L6.74013 10.1214V6.08779L5.43931 5.14112C4.26858 4.27677 3.18457 5.14112 3.18457 6.21127" fill="#C5221F"/>
<path d="M18.5919 7.52837L15.0364 10.1214V6.08779L16.3372 5.14112C17.5079 4.27677 18.5919 5.14112 18.5919 6.21127" fill="#FBBC04"/>
</g>
<defs>
<clipPath id="clip0_1974_17722">
<rect width="16" height="16" fill="white" transform="translate(2.88818 2.41797)"/>
</clipPath>
</defs>
</svg>
