<svg width="21" height="21" viewBox="0 0 21 21" fill="none" xmlns="http://www.w3.org/2000/svg">
<circle cx="11.2515" cy="10.418" r="8" fill="url(#paint0_radial_1986_32456)"/>
<circle cx="11.2515" cy="10.418" r="8" fill="black" fill-opacity="0.2"/>
<circle cx="11.2515" cy="10.418" r="8" fill="url(#paint1_radial_1986_32456)"/>
<g clip-path="url(#clip0_1986_32456)">
<g clip-path="url(#clip1_1986_32456)">
<path d="M9.25218 10.418C9.25218 9.31344 10.1473 8.41781 11.2519 8.41781C12.3564 8.41781 13.252 9.31344 13.252 10.418C13.252 11.5225 12.3564 12.4181 11.2519 12.4181C10.1473 12.4181 9.25218 11.5225 9.25218 10.418ZM8.17093 10.418C8.17093 12.1196 9.55026 13.4989 11.2519 13.4989C12.9535 13.4989 14.3328 12.1196 14.3328 10.418C14.3328 8.71637 12.9535 7.33704 11.2519 7.33704C9.55026 7.33704 8.17093 8.71637 8.17093 10.418ZM13.7348 7.21488C13.7347 7.35728 13.7769 7.49651 13.8559 7.61494C13.935 7.73338 14.0474 7.8257 14.179 7.88025C14.3105 7.9348 14.4553 7.94912 14.5949 7.92139C14.7346 7.89366 14.8629 7.82514 14.9637 7.72449C15.0644 7.62384 15.133 7.49557 15.1609 7.35592C15.1887 7.21626 15.1745 7.07149 15.1201 6.9399C15.0656 6.80832 14.9734 6.69583 14.855 6.61667C14.7366 6.53751 14.5974 6.49523 14.455 6.49517H14.4548C14.2639 6.49526 14.0808 6.5711 13.9458 6.70605C13.8108 6.84099 13.7349 7.024 13.7348 7.21488ZM8.82786 15.3018C8.24289 15.2752 7.92493 15.1777 7.71364 15.0954C7.43351 14.9864 7.23364 14.8565 7.02349 14.6466C6.81335 14.4368 6.68327 14.2371 6.57469 13.957C6.49233 13.7458 6.39489 13.4277 6.36829 12.8427C6.33921 12.2103 6.3334 12.0203 6.3334 10.418C6.3334 8.81573 6.33969 8.62627 6.36829 7.9933C6.39493 7.40832 6.49309 7.0909 6.57469 6.87907C6.68375 6.59894 6.81364 6.39907 7.02349 6.18893C7.23335 5.97878 7.43303 5.8487 7.71364 5.74013C7.92484 5.65776 8.24289 5.56032 8.82786 5.53373C9.46031 5.50464 9.65029 5.49883 11.2519 5.49883C12.8534 5.49883 13.0436 5.50512 13.6766 5.53373C14.2616 5.56037 14.579 5.65853 14.7908 5.74013C15.0709 5.8487 15.2708 5.97907 15.4809 6.18893C15.6911 6.39878 15.8207 6.59894 15.9297 6.87907C16.0121 7.09027 16.1096 7.40832 16.1361 7.9933C16.1652 8.62627 16.171 8.81573 16.171 10.418C16.171 12.0203 16.1652 12.2098 16.1361 12.8427C16.1095 13.4277 16.0116 13.7457 15.9297 13.957C15.8207 14.2371 15.6908 14.437 15.4809 14.6466C15.2711 14.8563 15.0709 14.9864 14.7908 15.0954C14.5796 15.1778 14.2616 15.2752 13.6766 15.3018C13.0441 15.3309 12.8541 15.3367 11.2519 15.3367C9.64957 15.3367 9.46012 15.3309 8.82786 15.3018ZM8.77818 4.4543C8.13945 4.48339 7.70298 4.58467 7.32181 4.73299C6.92706 4.88616 6.59289 5.09165 6.25895 5.42506C5.92501 5.75846 5.72005 6.09317 5.56689 6.48792C5.41857 6.86933 5.31729 7.30555 5.2882 7.94429C5.25863 8.58403 5.25186 8.78856 5.25186 10.418C5.25186 12.0474 5.25863 12.2519 5.2882 12.8916C5.31729 13.5304 5.41857 13.9666 5.56689 14.348C5.72005 14.7425 5.92506 15.0776 6.25895 15.4109C6.59284 15.7441 6.92706 15.9493 7.32181 16.1029C7.7037 16.2513 8.13945 16.3525 8.77818 16.3816C9.41826 16.4107 9.62245 16.418 11.2519 16.418C12.8813 16.418 13.0858 16.4112 13.7255 16.3816C14.3643 16.3525 14.8005 16.2513 15.1819 16.1029C15.5764 15.9493 15.9108 15.7443 16.2448 15.4109C16.5787 15.0775 16.7832 14.7425 16.9368 14.348C17.0852 13.9666 17.1869 13.5304 17.2155 12.8916C17.2446 12.2514 17.2514 12.0474 17.2514 10.418C17.2514 8.78856 17.2446 8.58403 17.2155 7.94429C17.1864 7.30551 17.0852 6.86909 16.9368 6.48792C16.7832 6.09341 16.5782 5.75899 16.2448 5.42506C15.9114 5.09112 15.5764 4.88616 15.1824 4.73299C14.8005 4.58467 14.3643 4.48291 13.726 4.4543C13.0863 4.42522 12.8817 4.41797 11.2523 4.41797C9.62293 4.41797 9.41826 4.42474 8.77818 4.4543Z" fill="url(#paint2_radial_1986_32456)"/>
<path d="M9.25218 10.418C9.25218 9.31344 10.1473 8.41781 11.2519 8.41781C12.3564 8.41781 13.252 9.31344 13.252 10.418C13.252 11.5225 12.3564 12.4181 11.2519 12.4181C10.1473 12.4181 9.25218 11.5225 9.25218 10.418ZM8.17093 10.418C8.17093 12.1196 9.55026 13.4989 11.2519 13.4989C12.9535 13.4989 14.3328 12.1196 14.3328 10.418C14.3328 8.71637 12.9535 7.33704 11.2519 7.33704C9.55026 7.33704 8.17093 8.71637 8.17093 10.418ZM13.7348 7.21488C13.7347 7.35728 13.7769 7.49651 13.8559 7.61494C13.935 7.73338 14.0474 7.8257 14.179 7.88025C14.3105 7.9348 14.4553 7.94912 14.5949 7.92139C14.7346 7.89366 14.8629 7.82514 14.9637 7.72449C15.0644 7.62384 15.133 7.49557 15.1609 7.35592C15.1887 7.21626 15.1745 7.07149 15.1201 6.9399C15.0656 6.80832 14.9734 6.69583 14.855 6.61667C14.7366 6.53751 14.5974 6.49523 14.455 6.49517H14.4548C14.2639 6.49526 14.0808 6.5711 13.9458 6.70605C13.8108 6.84099 13.7349 7.024 13.7348 7.21488ZM8.82786 15.3018C8.24289 15.2752 7.92493 15.1777 7.71364 15.0954C7.43351 14.9864 7.23364 14.8565 7.02349 14.6466C6.81335 14.4368 6.68327 14.2371 6.57469 13.957C6.49233 13.7458 6.39489 13.4277 6.36829 12.8427C6.33921 12.2103 6.3334 12.0203 6.3334 10.418C6.3334 8.81573 6.33969 8.62627 6.36829 7.9933C6.39493 7.40832 6.49309 7.0909 6.57469 6.87907C6.68375 6.59894 6.81364 6.39907 7.02349 6.18893C7.23335 5.97878 7.43303 5.8487 7.71364 5.74013C7.92484 5.65776 8.24289 5.56032 8.82786 5.53373C9.46031 5.50464 9.65029 5.49883 11.2519 5.49883C12.8534 5.49883 13.0436 5.50512 13.6766 5.53373C14.2616 5.56037 14.579 5.65853 14.7908 5.74013C15.0709 5.8487 15.2708 5.97907 15.4809 6.18893C15.6911 6.39878 15.8207 6.59894 15.9297 6.87907C16.0121 7.09027 16.1096 7.40832 16.1361 7.9933C16.1652 8.62627 16.171 8.81573 16.171 10.418C16.171 12.0203 16.1652 12.2098 16.1361 12.8427C16.1095 13.4277 16.0116 13.7457 15.9297 13.957C15.8207 14.2371 15.6908 14.437 15.4809 14.6466C15.2711 14.8563 15.0709 14.9864 14.7908 15.0954C14.5796 15.1778 14.2616 15.2752 13.6766 15.3018C13.0441 15.3309 12.8541 15.3367 11.2519 15.3367C9.64957 15.3367 9.46012 15.3309 8.82786 15.3018ZM8.77818 4.4543C8.13945 4.48339 7.70298 4.58467 7.32181 4.73299C6.92706 4.88616 6.59289 5.09165 6.25895 5.42506C5.92501 5.75846 5.72005 6.09317 5.56689 6.48792C5.41857 6.86933 5.31729 7.30555 5.2882 7.94429C5.25863 8.58403 5.25186 8.78856 5.25186 10.418C5.25186 12.0474 5.25863 12.2519 5.2882 12.8916C5.31729 13.5304 5.41857 13.9666 5.56689 14.348C5.72005 14.7425 5.92506 15.0776 6.25895 15.4109C6.59284 15.7441 6.92706 15.9493 7.32181 16.1029C7.7037 16.2513 8.13945 16.3525 8.77818 16.3816C9.41826 16.4107 9.62245 16.418 11.2519 16.418C12.8813 16.418 13.0858 16.4112 13.7255 16.3816C14.3643 16.3525 14.8005 16.2513 15.1819 16.1029C15.5764 15.9493 15.9108 15.7443 16.2448 15.4109C16.5787 15.0775 16.7832 14.7425 16.9368 14.348C17.0852 13.9666 17.1869 13.5304 17.2155 12.8916C17.2446 12.2514 17.2514 12.0474 17.2514 10.418C17.2514 8.78856 17.2446 8.58403 17.2155 7.94429C17.1864 7.30551 17.0852 6.86909 16.9368 6.48792C16.7832 6.09341 16.5782 5.75899 16.2448 5.42506C15.9114 5.09112 15.5764 4.88616 15.1824 4.73299C14.8005 4.58467 14.3643 4.48291 13.726 4.4543C13.0863 4.42522 12.8817 4.41797 11.2523 4.41797C9.62293 4.41797 9.41826 4.42474 8.77818 4.4543Z" fill="black" fill-opacity="0.2"/>
<path d="M9.25218 10.418C9.25218 9.31344 10.1473 8.41781 11.2519 8.41781C12.3564 8.41781 13.252 9.31344 13.252 10.418C13.252 11.5225 12.3564 12.4181 11.2519 12.4181C10.1473 12.4181 9.25218 11.5225 9.25218 10.418ZM8.17093 10.418C8.17093 12.1196 9.55026 13.4989 11.2519 13.4989C12.9535 13.4989 14.3328 12.1196 14.3328 10.418C14.3328 8.71637 12.9535 7.33704 11.2519 7.33704C9.55026 7.33704 8.17093 8.71637 8.17093 10.418ZM13.7348 7.21488C13.7347 7.35728 13.7769 7.49651 13.8559 7.61494C13.935 7.73338 14.0474 7.8257 14.179 7.88025C14.3105 7.9348 14.4553 7.94912 14.5949 7.92139C14.7346 7.89366 14.8629 7.82514 14.9637 7.72449C15.0644 7.62384 15.133 7.49557 15.1609 7.35592C15.1887 7.21626 15.1745 7.07149 15.1201 6.9399C15.0656 6.80832 14.9734 6.69583 14.855 6.61667C14.7366 6.53751 14.5974 6.49523 14.455 6.49517H14.4548C14.2639 6.49526 14.0808 6.5711 13.9458 6.70605C13.8108 6.84099 13.7349 7.024 13.7348 7.21488ZM8.82786 15.3018C8.24289 15.2752 7.92493 15.1777 7.71364 15.0954C7.43351 14.9864 7.23364 14.8565 7.02349 14.6466C6.81335 14.4368 6.68327 14.2371 6.57469 13.957C6.49233 13.7458 6.39489 13.4277 6.36829 12.8427C6.33921 12.2103 6.3334 12.0203 6.3334 10.418C6.3334 8.81573 6.33969 8.62627 6.36829 7.9933C6.39493 7.40832 6.49309 7.0909 6.57469 6.87907C6.68375 6.59894 6.81364 6.39907 7.02349 6.18893C7.23335 5.97878 7.43303 5.8487 7.71364 5.74013C7.92484 5.65776 8.24289 5.56032 8.82786 5.53373C9.46031 5.50464 9.65029 5.49883 11.2519 5.49883C12.8534 5.49883 13.0436 5.50512 13.6766 5.53373C14.2616 5.56037 14.579 5.65853 14.7908 5.74013C15.0709 5.8487 15.2708 5.97907 15.4809 6.18893C15.6911 6.39878 15.8207 6.59894 15.9297 6.87907C16.0121 7.09027 16.1096 7.40832 16.1361 7.9933C16.1652 8.62627 16.171 8.81573 16.171 10.418C16.171 12.0203 16.1652 12.2098 16.1361 12.8427C16.1095 13.4277 16.0116 13.7457 15.9297 13.957C15.8207 14.2371 15.6908 14.437 15.4809 14.6466C15.2711 14.8563 15.0709 14.9864 14.7908 15.0954C14.5796 15.1778 14.2616 15.2752 13.6766 15.3018C13.0441 15.3309 12.8541 15.3367 11.2519 15.3367C9.64957 15.3367 9.46012 15.3309 8.82786 15.3018ZM8.77818 4.4543C8.13945 4.48339 7.70298 4.58467 7.32181 4.73299C6.92706 4.88616 6.59289 5.09165 6.25895 5.42506C5.92501 5.75846 5.72005 6.09317 5.56689 6.48792C5.41857 6.86933 5.31729 7.30555 5.2882 7.94429C5.25863 8.58403 5.25186 8.78856 5.25186 10.418C5.25186 12.0474 5.25863 12.2519 5.2882 12.8916C5.31729 13.5304 5.41857 13.9666 5.56689 14.348C5.72005 14.7425 5.92506 15.0776 6.25895 15.4109C6.59284 15.7441 6.92706 15.9493 7.32181 16.1029C7.7037 16.2513 8.13945 16.3525 8.77818 16.3816C9.41826 16.4107 9.62245 16.418 11.2519 16.418C12.8813 16.418 13.0858 16.4112 13.7255 16.3816C14.3643 16.3525 14.8005 16.2513 15.1819 16.1029C15.5764 15.9493 15.9108 15.7443 16.2448 15.4109C16.5787 15.0775 16.7832 14.7425 16.9368 14.348C17.0852 13.9666 17.1869 13.5304 17.2155 12.8916C17.2446 12.2514 17.2514 12.0474 17.2514 10.418C17.2514 8.78856 17.2446 8.58403 17.2155 7.94429C17.1864 7.30551 17.0852 6.86909 16.9368 6.48792C16.7832 6.09341 16.5782 5.75899 16.2448 5.42506C15.9114 5.09112 15.5764 4.88616 15.1824 4.73299C14.8005 4.58467 14.3643 4.48291 13.726 4.4543C13.0863 4.42522 12.8817 4.41797 11.2523 4.41797C9.62293 4.41797 9.41826 4.42474 8.77818 4.4543Z" fill="white"/>
</g>
</g>
<defs>
<radialGradient id="paint0_radial_1986_32456" cx="0" cy="0" r="1" gradientUnits="userSpaceOnUse" gradientTransform="translate(5.37725 18.4936) scale(20.8875 20.8867)">
<stop offset="0.09" stop-color="#FA8F21"/>
<stop offset="0.78" stop-color="#D82D7E"/>
</radialGradient>
<radialGradient id="paint1_radial_1986_32456" cx="0" cy="0" r="1" gradientUnits="userSpaceOnUse" gradientTransform="translate(12.9551 19.2104) scale(16.4622 16.4616)">
<stop offset="0.64" stop-color="#8C3AAA" stop-opacity="0"/>
<stop offset="1" stop-color="#8C3AAA"/>
</radialGradient>
<radialGradient id="paint2_radial_1986_32456" cx="0" cy="0" r="1" gradientUnits="userSpaceOnUse" gradientTransform="translate(6.84613 16.4747) scale(15.665)">
<stop offset="0.09" stop-color="#FA8F21"/>
<stop offset="0.78" stop-color="#D82D7E"/>
</radialGradient>
<clipPath id="clip0_1986_32456">
<rect width="12" height="12" fill="white" transform="translate(5.25146 4.41797)"/>
</clipPath>
<clipPath id="clip1_1986_32456">
<rect width="12" height="12" fill="white" transform="translate(5.25146 4.41797)"/>
</clipPath>
</defs>
</svg>
