<svg width="16" height="16" viewBox="0 0 16 16" fill="none" xmlns="http://www.w3.org/2000/svg">
<mask id="mask0_6167_6876" style="mask-type:alpha" maskUnits="userSpaceOnUse" x="0" y="0" width="16" height="16">
<rect width="16" height="16" fill="#D9D9D9"/>
</mask>
<g mask="url(#mask0_6167_6876)">
</g>
<path d="M11.1167 10.1756C11.7839 9.31041 12.145 8.24819 12.1434 7.15561C12.1434 6.16934 11.8509 5.20522 11.303 4.38517C10.755 3.56512 9.97622 2.92596 9.06503 2.54853C8.15383 2.17111 7.15118 2.07235 6.18386 2.26476C5.21654 2.45718 4.32801 2.93211 3.63061 3.62951C2.93321 4.32691 2.45828 5.21545 2.26586 6.18276C2.07345 7.15008 2.1722 8.15274 2.54963 9.06393C2.92706 9.97512 3.56622 10.7539 4.38627 11.3019C5.20632 11.8498 6.17044 12.1423 7.15671 12.1423C8.24929 12.1439 9.31151 11.7828 10.1767 11.1156L12.69 13.6289L13.63 12.6889L11.1167 10.1756ZM3.50338 7.15561C3.50338 6.43305 3.71764 5.72672 4.11908 5.12593C4.52051 4.52514 5.09108 4.05689 5.75864 3.78037C6.4262 3.50386 7.16077 3.43151 7.86944 3.57248C8.57812 3.71344 9.22908 4.06139 9.74001 4.57232C10.2509 5.08325 10.5989 5.73421 10.7398 6.44288C10.8808 7.15156 10.8085 7.88613 10.532 8.55368C10.2554 9.22124 9.78718 9.79182 9.1864 10.1933C8.58561 10.5947 7.87927 10.8089 7.15671 10.8089C6.18833 10.8072 5.26011 10.4217 4.57536 9.73696C3.89061 9.05221 3.50514 8.124 3.50338 7.15561Z" fill="#686662"/>
</svg>
