<svg width="20" height="20" viewBox="0 0 20 20" fill="none" xmlns="http://www.w3.org/2000/svg">
<mask id="mask0_4479_11580" style="mask-type:alpha" maskUnits="userSpaceOnUse" x="0" y="0" width="20" height="20">
<rect y="0.5" width="19.9879" height="19" fill="#D9D9D9"/>
</mask>
<g mask="url(#mask0_4479_11580)">
</g>
<path d="M13.8136 12.7032C14.6059 11.6758 15.0347 10.4144 15.0328 9.11698C15.0328 7.94579 14.6855 6.80089 14.0348 5.82708C13.3841 4.85327 12.4593 4.09427 11.3772 3.64608C10.2952 3.19788 9.10455 3.08061 7.95586 3.3091C6.80717 3.53759 5.75203 4.10157 4.92387 4.92973C4.09571 5.75789 3.53173 6.81303 3.30324 7.96172C3.07475 9.11041 3.19202 10.3011 3.64022 11.3831C4.08841 12.4651 4.84741 13.39 5.82122 14.0407C6.79503 14.6913 7.93993 15.0386 9.11112 15.0386C10.4086 15.0406 11.6699 14.6118 12.6974 13.8195L15.682 16.8041L16.7982 15.6878L13.8136 12.7032ZM4.77279 9.11698C4.77279 8.25894 5.02723 7.42017 5.50393 6.70673C5.98063 5.9933 6.65819 5.43724 7.45091 5.10888C8.24364 4.78053 9.11593 4.69461 9.95749 4.86201C10.799 5.0294 11.5721 5.44259 12.1788 6.04932C12.7855 6.65604 13.1987 7.42906 13.3661 8.27062C13.5335 9.11217 13.4476 9.98446 13.1192 10.7772C12.7909 11.5699 12.2348 12.2475 11.5214 12.7242C10.8079 13.2009 9.96916 13.4553 9.11112 13.4553C7.96117 13.4532 6.85891 12.9955 6.04577 12.1823C5.23263 11.3692 4.77488 10.2669 4.77279 9.11698Z" fill="#BFBFBF" fill-opacity="0.8"/>
</svg>
