<svg width="21" height="20" viewBox="0 0 21 20" fill="none" xmlns="http://www.w3.org/2000/svg">
<mask id="mask0_5684_1579" style="mask-type:alpha" maskUnits="userSpaceOnUse" x="0" y="0" width="21" height="20">
<rect x="0.699219" y="0.5" width="19.9879" height="19" fill="#D9D9D9"/>
</mask>
<g mask="url(#mask0_5684_1579)">
</g>
<path d="M14.5128 12.7032C15.3051 11.6758 15.734 10.4144 15.732 9.11698C15.732 7.94579 15.3847 6.80089 14.734 5.82708C14.0833 4.85327 13.1585 4.09427 12.0765 3.64608C10.9944 3.19788 9.80377 3.08061 8.65508 3.3091C7.50639 3.53759 6.45125 4.10157 5.62309 4.92973C4.79493 5.75789 4.23095 6.81303 4.00246 7.96172C3.77397 9.11041 3.89124 10.3011 4.33943 11.3831C4.78763 12.4651 5.54663 13.39 6.52044 14.0407C7.49425 14.6913 8.63915 15.0386 9.81034 15.0386C11.1078 15.0406 12.3692 14.6118 13.3966 13.8195L16.3812 16.8041L17.4974 15.6878L14.5128 12.7032ZM5.47201 9.11698C5.47201 8.25894 5.72645 7.42017 6.20315 6.70673C6.67985 5.9933 7.35741 5.43724 8.15013 5.10888C8.94286 4.78053 9.81515 4.69461 10.6567 4.86201C11.4983 5.0294 12.2713 5.44259 12.878 6.04932C13.4847 6.65604 13.8979 7.42906 14.0653 8.27062C14.2327 9.11217 14.1468 9.98446 13.8184 10.7772C13.4901 11.5699 12.934 12.2475 12.2206 12.7242C11.5072 13.2009 10.6684 13.4553 9.81034 13.4553C8.66039 13.4532 7.55813 12.9955 6.74499 12.1823C5.93185 11.3692 5.4741 10.2669 5.47201 9.11698Z" fill="#B699F9"/>
</svg>
