<svg width="21" height="21" viewBox="0 0 21 21" fill="none" xmlns="http://www.w3.org/2000/svg">
<path d="M2.88815 18.418L4.01282 14.3093C3.31882 13.1066 2.95415 11.7433 2.95482 10.3453C2.95682 5.97464 6.51349 2.41797 10.8835 2.41797C13.0042 2.41864 14.9948 3.24464 16.4922 4.7433C17.9888 6.24197 18.8128 8.23397 18.8122 10.3526C18.8102 14.724 15.2535 18.2806 10.8835 18.2806C9.55682 18.28 8.24949 17.9473 7.09149 17.3153L2.88815 18.418ZM7.28615 15.88C8.40349 16.5433 9.47015 16.9406 10.8808 16.9413C14.5128 16.9413 17.4715 13.9853 17.4735 10.3513C17.4748 6.70997 14.5302 3.75797 10.8862 3.75664C7.25149 3.75664 4.29482 6.71264 4.29349 10.346C4.29282 11.8293 4.72749 12.94 5.45749 14.102L4.79149 16.534L7.28615 15.88ZM14.8775 12.2373C14.8282 12.1546 14.6962 12.1053 14.4975 12.006C14.2995 11.9066 13.3255 11.4273 13.1435 11.3613C12.9622 11.2953 12.8302 11.262 12.6975 11.4606C12.5655 11.6586 12.1855 12.1053 12.0702 12.2373C11.9548 12.3693 11.8388 12.386 11.6408 12.2866C11.4428 12.1873 10.8042 11.9786 10.0475 11.3033C9.45882 10.778 9.06082 10.1293 8.94549 9.93064C8.83015 9.73264 8.93349 9.6253 9.03215 9.52664C9.12149 9.43797 9.23015 9.2953 9.32949 9.1793C9.43015 9.06464 9.46282 8.98197 9.52949 8.8493C9.59549 8.7173 9.56282 8.6013 9.51282 8.50197C9.46282 8.4033 9.06682 7.42797 8.90215 7.0313C8.74082 6.6453 8.57749 6.6973 8.45615 6.6913L8.07615 6.68464C7.94415 6.68464 7.72949 6.73397 7.54815 6.93264C7.36682 7.1313 6.85482 7.60997 6.85482 8.5853C6.85482 9.56064 7.56482 10.5026 7.66349 10.6346C7.76282 10.7666 9.06015 12.768 11.0475 13.626C11.5202 13.83 11.8895 13.952 12.1768 14.0433C12.6515 14.194 13.0835 14.1726 13.4248 14.122C13.8055 14.0653 14.5968 13.6426 14.7622 13.18C14.9275 12.7166 14.9275 12.32 14.8775 12.2373Z" fill="#25D366"/>
</svg>
