<svg width="32" height="32" viewBox="0 0 32 32" fill="none" xmlns="http://www.w3.org/2000/svg">
<rect width="32" height="32" rx="6" fill="#5865F2"/>
<path d="M21.8348 10.7549C23.7204 13.5468 24.6516 16.696 24.3035 20.3215C24.302 20.3369 24.2941 20.3509 24.2815 20.3602C22.8537 21.4161 21.4702 22.0569 20.1062 22.4819C20.0956 22.4851 20.0842 22.485 20.0737 22.4814C20.0632 22.4778 20.054 22.471 20.0475 22.4619C19.7324 22.0204 19.4461 21.5548 19.1952 21.066C19.1808 21.0372 19.194 21.0025 19.2236 20.9911C19.6784 20.8186 20.1108 20.6118 20.5267 20.3669C20.5595 20.3476 20.5616 20.3003 20.5313 20.2776C20.443 20.2116 20.3556 20.1422 20.2719 20.0729C20.2562 20.0601 20.2352 20.0575 20.2174 20.0662C17.5171 21.3219 14.5591 21.3219 11.8268 20.0662C11.8091 20.0582 11.788 20.0609 11.7728 20.0735C11.6893 20.1429 11.6016 20.2116 11.5142 20.2776C11.4839 20.3003 11.4864 20.3476 11.5194 20.3669C11.9353 20.6071 12.3678 20.8186 12.8219 20.992C12.8513 21.0033 12.8653 21.0372 12.8507 21.066C12.6053 21.5554 12.3189 22.021 11.9979 22.4626C11.984 22.4804 11.961 22.4886 11.9393 22.4819C10.5817 22.0569 9.1983 21.4161 7.77041 20.3602C7.75851 20.3509 7.74996 20.3362 7.7487 20.3209C7.45778 17.1849 8.05069 14.0096 10.2151 10.7542C10.2203 10.7456 10.2282 10.7389 10.2374 10.7349C11.3024 10.2427 12.4433 9.88055 13.6358 9.67374C13.6575 9.67037 13.6792 9.68046 13.6905 9.6998C13.8378 9.96252 14.0062 10.2994 14.1202 10.5747C15.3771 10.3814 16.6537 10.3814 17.937 10.5747C18.0509 10.3053 18.2135 9.96252 18.3602 9.6998C18.3655 9.69021 18.3736 9.68252 18.3834 9.67784C18.3932 9.67316 18.4042 9.67172 18.4149 9.67374C19.608 9.88118 20.749 10.2433 21.8131 10.7349C21.8225 10.7389 21.8302 10.7456 21.8348 10.7549ZM14.7592 16.7175C14.7723 15.7904 14.1012 15.0233 13.2587 15.0233C12.4231 15.0233 11.7584 15.7837 11.7584 16.7175C11.7584 17.6511 12.4362 18.4115 13.2587 18.4115C14.0945 18.4115 14.7592 17.6511 14.7592 16.7175ZM20.3067 16.7175C20.3199 15.7904 19.6487 15.0233 18.8064 15.0233C17.9706 15.0233 17.3059 15.7837 17.3059 16.7175C17.3059 17.6511 17.9837 18.4115 18.8064 18.4115C19.6487 18.4115 20.3067 17.6511 20.3067 16.7175Z" fill="white"/>
</svg>
