<svg width="33" height="32" viewBox="0 0 33 32" fill="none" xmlns="http://www.w3.org/2000/svg">
<rect x="1" y="0.5" width="31" height="31" rx="5.5" fill="white" stroke="#C4CFE3"/>
<path d="M8.52056 23.135H11.4852V15.9352L7.25 12.7588V21.8644C7.25 22.5675 7.81963 23.135 8.52056 23.135Z" fill="#4285F4"/>
<path d="M21.6494 23.135H24.614C25.3171 23.135 25.8846 22.5654 25.8846 21.8644V12.7588L21.6494 15.9352" fill="#34A853"/>
<path d="M21.6494 10.4294V15.9352L25.8846 12.7588V11.0647C25.8846 9.49346 24.091 8.59772 22.8353 9.54004" fill="#FBBC04"/>
<path d="M11.4854 15.9354V10.4297L16.5676 14.2414L21.6498 10.4297V15.9354L16.5676 19.7471" fill="#EA4335"/>
<path d="M7.25 11.0647V12.7588L11.4852 15.9352V10.4294L10.2993 9.54004C9.04148 8.59772 7.25 9.49346 7.25 11.0647Z" fill="#C5221F"/>
</svg>
