<svg width="33" height="32" viewBox="0 0 33 32" fill="none" xmlns="http://www.w3.org/2000/svg">
<rect x="0.5" width="32" height="32" rx="6" fill="url(#paint0_linear_4870_11501)"/>
<path d="M13.837 16.0413C13.837 14.5673 15.0312 13.372 16.5048 13.372C17.9784 13.372 19.1733 14.5673 19.1733 16.0413C19.1733 17.5153 17.9784 18.7105 16.5048 18.7105C15.0312 18.7105 13.837 17.5153 13.837 16.0413ZM12.3944 16.0413C12.3944 18.3121 14.2346 20.1528 16.5048 20.1528C18.775 20.1528 20.6152 18.3121 20.6152 16.0413C20.6152 13.7705 18.775 11.9297 16.5048 11.9297C14.2346 11.9297 12.3944 13.7705 12.3944 16.0413ZM19.8173 11.7667C19.8172 11.9567 19.8735 12.1425 19.979 12.3006C20.0845 12.4587 20.2344 12.5819 20.4099 12.6547C20.5854 12.7275 20.7786 12.7466 20.9649 12.7096C21.1513 12.6726 21.3225 12.5811 21.4568 12.4468C21.5912 12.3125 21.6828 12.1413 21.7199 11.9549C21.7571 11.7686 21.7381 11.5753 21.6655 11.3997C21.5929 11.2241 21.4698 11.074 21.3119 10.9684C21.154 10.8627 20.9683 10.8063 20.7783 10.8062H20.7779C20.5232 10.8064 20.279 10.9076 20.0989 11.0877C19.9188 11.2678 19.8175 11.512 19.8173 11.7667ZM13.2709 22.5589C12.4904 22.5233 12.0662 22.3933 11.7843 22.2834C11.4106 22.1379 11.144 21.9646 10.8636 21.6845C10.5832 21.4045 10.4097 21.138 10.2648 20.7641C10.1549 20.4823 10.0249 20.0579 9.98947 19.2772C9.95066 18.4332 9.94291 18.1796 9.94291 16.0414C9.94291 13.9031 9.9513 13.6502 9.98947 12.8055C10.025 12.0249 10.156 11.6013 10.2648 11.3186C10.4103 10.9447 10.5836 10.678 10.8636 10.3976C11.1436 10.1171 11.41 9.94352 11.7843 9.79863C12.0661 9.68871 12.4904 9.55867 13.2709 9.52318C14.1146 9.48436 14.3681 9.47661 16.5048 9.47661C18.6415 9.47661 18.8952 9.485 19.7397 9.52318C20.5201 9.55873 20.9436 9.68973 21.2262 9.79863C21.6 9.94352 21.8666 10.1175 22.147 10.3976C22.4273 10.6776 22.6002 10.9447 22.7457 11.3186C22.8556 11.6004 22.9856 12.0249 23.0211 12.8055C23.0599 13.6502 23.0676 13.9031 23.0676 16.0414C23.0676 18.1796 23.0599 18.4325 23.0211 19.2772C22.9856 20.0579 22.8549 20.4822 22.7457 20.7641C22.6002 21.138 22.4269 21.4047 22.147 21.6845C21.867 21.9643 21.6 22.1379 21.2262 22.2834C20.9445 22.3934 20.5201 22.5234 19.7397 22.5589C18.8959 22.5977 18.6425 22.6055 16.5048 22.6055C14.3671 22.6055 14.1144 22.5977 13.2709 22.5589ZM13.2046 8.08267C12.3524 8.12149 11.7701 8.25665 11.2616 8.45459C10.7349 8.65899 10.2891 8.93322 9.84359 9.37816C9.39807 9.8231 9.12463 10.2698 8.92028 10.7966C8.72241 11.3056 8.58728 11.8877 8.54848 12.7401C8.50903 13.5939 8.5 13.8668 8.5 16.0413C8.5 18.2158 8.50903 18.4887 8.54848 19.3425C8.58728 20.1949 8.72241 20.777 8.92028 21.286C9.12463 21.8125 9.39814 22.2597 9.84359 22.7044C10.289 23.1492 10.7349 23.423 11.2616 23.628C11.7711 23.8259 12.3524 23.9611 13.2046 23.9999C14.0585 24.0387 14.331 24.0484 16.5048 24.0484C18.6786 24.0484 18.9515 24.0394 19.805 23.9999C20.6572 23.9611 21.2392 23.8259 21.748 23.628C22.2743 23.423 22.7205 23.1494 23.166 22.7044C23.6115 22.2595 23.8844 21.8125 24.0893 21.286C24.2872 20.777 24.423 20.1949 24.4611 19.3425C24.4999 18.4881 24.509 18.2158 24.509 16.0413C24.509 13.8668 24.4999 13.5939 24.4611 12.7401C24.4223 11.8877 24.2872 11.3052 24.0893 10.7966C23.8844 10.2701 23.6108 9.8238 23.166 9.37816C22.7212 8.93251 22.2743 8.65899 21.7486 8.45459C21.2392 8.25665 20.6572 8.12085 19.8057 8.08267C18.9522 8.04385 18.6793 8.03418 16.5054 8.03418C14.3316 8.03418 14.0585 8.04321 13.2046 8.08267Z" fill="white"/>
<defs>
<linearGradient id="paint0_linear_4870_11501" x1="31.885" y1="32" x2="-0.115039" y2="-8.6135e-07" gradientUnits="userSpaceOnUse">
<stop stop-color="#FBE18A"/>
<stop offset="0.21" stop-color="#FCBB45"/>
<stop offset="0.38" stop-color="#F75274"/>
<stop offset="0.52" stop-color="#D53692"/>
<stop offset="0.74" stop-color="#8F39CE"/>
<stop offset="1" stop-color="#5B4FE9"/>
</linearGradient>
</defs>
</svg>
