<svg width="20" height="20" viewBox="0 0 20 20" fill="none" xmlns="http://www.w3.org/2000/svg">
<g clip-path="url(#clip0_4679_22132)">
<mask id="mask0_4679_22132" style="mask-type:alpha" maskUnits="userSpaceOnUse" x="0" y="0" width="20" height="20">
<rect width="20" height="20" fill="#D9D9D9"/>
</mask>
<g mask="url(#mask0_4679_22132)">
<path d="M6 17V16L7 15H3.5C3.0875 15 2.73438 14.8531 2.44063 14.5594C2.14688 14.2656 2 13.9125 2 13.5V4.5C2 4.0875 2.14688 3.73438 2.44063 3.44063C2.73438 3.14688 3.0875 3 3.5 3H10.25V4.5H3.5V13.5H16.5V10.5H18V13.5C18 13.9125 17.8531 14.2656 17.5594 14.5594C17.2656 14.8531 16.9125 15 16.5 15H13L14 16V17H6ZM12.5 13L8.5 9L9.5625 7.9375L11.75 10.125V3H13.25V10.125L15.4375 7.9375L16.5 9L12.5 13Z" fill="white" fill-opacity="0.7"/>
</g>
</g>
<defs>
<clipPath id="clip0_4679_22132">
<rect width="20" height="20" fill="white"/>
</clipPath>
</defs>
</svg>
