<svg width="33" height="32" viewBox="0 0 33 32" fill="none" xmlns="http://www.w3.org/2000/svg">
<rect x="0.5" width="32" height="32" rx="6" fill="url(#paint0_radial_4870_11586)"/>
<path d="M16.5038 7.04004C11.9951 7.04004 8.49902 10.344 8.49902 14.8047C8.49902 17.1381 9.4556 19.1553 11.0125 20.5481C11.1426 20.6642 11.2227 20.8283 11.2267 21.0044L11.2707 22.4293C11.2739 22.5341 11.3028 22.6365 11.3549 22.7276C11.4069 22.8187 11.4806 22.8955 11.5693 22.9514C11.658 23.0074 11.7592 23.0406 11.8638 23.0483C11.9684 23.056 12.0733 23.0379 12.1692 22.9956L13.7582 22.2952C13.8923 22.2351 14.0443 22.2251 14.1864 22.2632C14.9169 22.4633 15.6933 22.5714 16.5038 22.5714C21.0125 22.5714 24.5086 19.2674 24.5086 14.8067C24.5086 10.346 21.0125 7.04004 16.5038 7.04004Z" fill="white"/>
<path d="M11.6969 17.0761L14.0483 13.3458C14.1368 13.2054 14.2534 13.0848 14.3908 12.9917C14.5282 12.8986 14.6834 12.835 14.8467 12.8049C15.0099 12.7748 15.1776 12.7789 15.3392 12.8169C15.5007 12.8549 15.6527 12.926 15.7854 13.0256L17.6565 14.4285C17.74 14.491 17.8417 14.5246 17.946 14.5243C18.0504 14.5239 18.1518 14.4896 18.2349 14.4265L20.7604 12.5093C21.0966 12.2532 21.5368 12.6574 21.3127 13.0156L18.9593 16.7439C18.8708 16.8843 18.7542 17.0049 18.6168 17.098C18.4794 17.1911 18.3242 17.2547 18.161 17.2848C17.9977 17.3149 17.8301 17.3108 17.6685 17.2728C17.5069 17.2348 17.355 17.1637 17.2223 17.064L15.3511 15.6612C15.2676 15.5987 15.166 15.565 15.0616 15.5654C14.9573 15.5658 14.8559 15.6001 14.7728 15.6632L12.2473 17.5804C11.9111 17.8365 11.4708 17.4343 11.6969 17.0761Z" fill="url(#paint1_radial_4870_11586)"/>
<defs>
<radialGradient id="paint0_radial_4870_11586" cx="0" cy="0" r="1" gradientUnits="userSpaceOnUse" gradientTransform="translate(5.86 31.9991) scale(35.2 35.199)">
<stop stop-color="#0099FF"/>
<stop offset="0.6" stop-color="#A033FF"/>
<stop offset="0.9" stop-color="#FF5280"/>
<stop offset="1" stop-color="#FF7061"/>
</radialGradient>
<radialGradient id="paint1_radial_4870_11586" cx="0" cy="0" r="1" gradientUnits="userSpaceOnUse" gradientTransform="translate(11.1806 23.0496) scale(17.6106 17.6106)">
<stop stop-color="#0099FF"/>
<stop offset="0.6" stop-color="#A033FF"/>
<stop offset="0.9" stop-color="#FF5280"/>
<stop offset="1" stop-color="#FF7061"/>
</radialGradient>
</defs>
</svg>
