<svg width="33" height="33" viewBox="0 0 33 33" fill="none" xmlns="http://www.w3.org/2000/svg">
<rect x="0.957031" y="1.45703" width="31" height="31" rx="5.5" fill="white" stroke="#C4CFE3"/>
<path d="M11.5232 19.3853C11.5232 20.4009 10.7031 21.2218 9.68837 21.2218C8.67364 21.2218 7.85352 20.4009 7.85352 19.3853C7.85352 18.3697 8.67364 17.5488 9.68837 17.5488H11.5232V19.3853ZM12.4406 19.3853C12.4406 18.3697 13.2608 17.5488 14.2755 17.5488C15.2902 17.5488 16.1104 18.3697 16.1104 19.3853V23.9765C16.1104 24.9922 15.2902 25.813 14.2755 25.813C13.2608 25.813 12.4406 24.9922 12.4406 23.9765V19.3853Z" fill="#E01E5A"/>
<path d="M14.2748 12.0118C13.26 12.0118 12.4399 11.191 12.4399 10.1754C12.4399 9.15972 13.26 8.33887 14.2748 8.33887C15.2895 8.33887 16.1096 9.15972 16.1096 10.1754V12.0118H14.2748ZM14.2748 12.944C15.2895 12.944 16.1096 13.7648 16.1096 14.7805C16.1096 15.7961 15.2895 16.617 14.2748 16.617H9.67372C8.65899 16.617 7.83887 15.7961 7.83887 14.7805C7.83887 13.7648 8.65899 12.944 9.67372 12.944H14.2748Z" fill="#36C5F0"/>
<path d="M21.6291 14.7805C21.6291 13.7648 22.4492 12.944 23.464 12.944C24.4787 12.944 25.2988 13.7648 25.2988 14.7805C25.2988 15.7961 24.4787 16.617 23.464 16.617H21.6291V14.7805ZM20.7117 14.7805C20.7117 15.7961 19.8916 16.617 18.8768 16.617C17.8621 16.617 17.042 15.7961 17.042 14.7805V10.1754C17.042 9.15972 17.8621 8.33887 18.8768 8.33887C19.8916 8.33887 20.7117 9.15972 20.7117 10.1754V14.7805Z" fill="#2EB67D"/>
<path d="M18.8768 22.14C19.8916 22.14 20.7117 22.9609 20.7117 23.9765C20.7117 24.9922 19.8916 25.813 18.8768 25.813C17.8621 25.813 17.042 24.9922 17.042 23.9765V22.14H18.8768ZM18.8768 21.2218C17.8621 21.2218 17.042 20.4009 17.042 19.3853C17.042 18.3697 17.8621 17.5488 18.8768 17.5488H23.4779C24.4926 17.5488 25.3127 18.3697 25.3127 19.3853C25.3127 20.4009 24.4926 21.2218 23.4779 21.2218H18.8768Z" fill="#ECB22E"/>
</svg>
