<svg width="32" height="32" viewBox="0 0 32 32" fill="none" xmlns="http://www.w3.org/2000/svg">
<rect width="32" height="32" rx="4.8" fill="#00D95F"/>
<path d="M4.00977 28.0106L5.73171 21.608C4.34301 19.1139 3.9018 16.2034 4.48906 13.4107C5.07631 10.618 6.65264 8.13042 8.92878 6.40439C11.2049 4.67835 14.0282 3.82966 16.8805 4.01405C19.7328 4.19845 22.4229 5.40355 24.4571 7.40823C26.4912 9.41291 27.733 12.0827 27.9546 14.9277C28.1762 17.7727 27.3627 20.602 25.6634 22.8965C23.9641 25.191 21.493 26.7968 18.7035 27.4192C15.914 28.0415 12.9933 27.6387 10.4772 26.2847L4.00977 28.0106ZM10.7891 23.8888L11.1891 24.1257C13.0115 25.2041 15.14 25.6504 17.243 25.395C19.346 25.1395 21.3053 24.1968 22.8156 22.7136C24.3258 21.2304 25.3022 19.2901 25.5926 17.1951C25.883 15.1001 25.471 12.968 24.4209 11.1311C23.3709 9.29425 21.7416 7.85575 19.7871 7.03981C17.8326 6.22386 15.6627 6.07631 13.6154 6.62013C11.5681 7.16395 9.75856 8.36861 8.46868 10.0464C7.1788 11.7241 6.48107 13.7807 6.48421 15.8957C6.4825 17.6494 6.9683 19.3691 7.88753 20.8635L8.13837 21.2764L7.1757 24.8499L10.7891 23.8888Z" fill="white"/>
<path fill-rule="evenodd" clip-rule="evenodd" d="M20.3888 17.7269C20.1544 17.5381 19.8798 17.4052 19.5861 17.3383C19.2924 17.2715 18.9873 17.2724 18.694 17.3411C18.2533 17.5238 17.9686 18.2142 17.6839 18.5593C17.6238 18.6421 17.5356 18.7001 17.4358 18.7226C17.3359 18.745 17.2313 18.7303 17.1415 18.6812C15.5283 18.0504 14.176 16.8936 13.3044 15.3987C13.2301 15.3054 13.1949 15.1869 13.2063 15.0683C13.2177 14.9496 13.2747 14.84 13.3655 14.7625C13.683 14.4486 13.9162 14.0599 14.0434 13.6322C14.0716 13.1605 13.9634 12.6906 13.7315 12.2786C13.5523 11.701 13.2112 11.1866 12.7485 10.7964C12.5099 10.6892 12.2453 10.6533 11.9867 10.6929C11.7281 10.7325 11.4865 10.846 11.291 11.0197C10.9517 11.312 10.6823 11.6765 10.5028 12.0865C10.3233 12.4964 10.2382 12.9414 10.2538 13.3885C10.2548 13.6396 10.2867 13.8897 10.3487 14.133C10.5061 14.7177 10.7482 15.2763 11.0673 15.7912C11.2975 16.1856 11.5487 16.5674 11.8198 16.935C12.7008 18.1424 13.8082 19.1676 15.0806 19.9536C15.7191 20.353 16.4016 20.6777 17.1144 20.9214C17.8549 21.2565 18.6725 21.3852 19.4804 21.2936C19.9407 21.2241 20.3768 21.0427 20.7504 20.7653C21.1239 20.488 21.4235 20.1232 21.6227 19.7031C21.7397 19.4494 21.7752 19.1657 21.7244 18.891C21.6023 18.3292 20.8498 17.9976 20.3888 17.7269Z" fill="white"/>
</svg>
