<svg width="16" height="16" viewBox="0 0 16 16" fill="none" xmlns="http://www.w3.org/2000/svg">
<mask id="mask0_6375_2979" style="mask-type:alpha" maskUnits="userSpaceOnUse" x="0" y="0" width="16" height="16">
<rect width="16" height="16" fill="#D9D9D9"/>
</mask>
<g mask="url(#mask0_6375_2979)">
<path d="M8.0001 12.0001C9.11121 12.0001 10.0557 11.6112 10.8334 10.8334C11.6112 10.0557 12.0001 9.11121 12.0001 8.0001C12.0001 6.88899 11.6112 5.94454 10.8334 5.16676C10.0557 4.38899 9.11121 4.0001 8.0001 4.0001V8.0001L5.16676 10.8334C5.53343 11.189 5.95843 11.4723 6.44176 11.6834C6.9251 11.8945 7.44454 12.0001 8.0001 12.0001ZM8.00476 14.4001C7.12388 14.4001 6.29454 14.2334 5.51676 13.9001C4.73899 13.5668 4.05843 13.1084 3.4751 12.5251C2.89176 11.9418 2.43343 11.2614 2.1001 10.4841C1.76676 9.70677 1.6001 8.87621 1.6001 7.99243C1.6001 7.10865 1.76676 6.28065 2.1001 5.50843C2.43343 4.73621 2.89176 4.05843 3.4751 3.4751C4.05843 2.89176 4.73876 2.43343 5.5161 2.1001C6.29343 1.76676 7.12399 1.6001 8.00776 1.6001C8.89154 1.6001 9.71954 1.76676 10.4918 2.1001C11.264 2.43343 11.9418 2.89176 12.5251 3.4751C13.1084 4.05843 13.5668 4.73743 13.9001 5.5121C14.2334 6.28687 14.4001 7.11465 14.4001 7.99543C14.4001 8.87632 14.2334 9.70565 13.9001 10.4834C13.5668 11.2612 13.1084 11.9418 12.5251 12.5251C11.9418 13.1084 11.2628 13.5668 10.4881 13.9001C9.71332 14.2334 8.88554 14.4001 8.00476 14.4001Z" fill="#C92519"/>
</g>
</svg>
