<svg width="20" height="20" viewBox="0 0 20 20" fill="none" xmlns="http://www.w3.org/2000/svg">
<g clip-path="url(#clip0_4548_2770)">
<mask id="mask0_4548_2770" style="mask-type:alpha" maskUnits="userSpaceOnUse" x="0" y="0" width="21" height="21">
<rect x="0.5" y="0.5" width="20" height="20" fill="#D9D9D9"/>
</mask>
<g mask="url(#mask0_4548_2770)">
<path d="M4.7751 16.6502C4.38322 16.6502 4.04775 16.5107 3.76869 16.2316C3.48963 15.9525 3.3501 15.6171 3.3501 15.2252V4.7752C3.3501 4.37791 3.48864 4.03776 3.76572 3.75474C4.04281 3.47185 4.37926 3.337 4.7751 3.3502H11.623L10.198 4.7752H4.7751V15.2252H15.2251V9.80228L16.6501 8.37728V15.2252C16.6501 15.6171 16.5106 15.9525 16.2315 16.2316C15.9524 16.5107 15.617 16.6502 15.2251 16.6502H4.7751ZM8.1001 11.9002V8.87207L15.1063 1.86582C15.2515 1.72068 15.4098 1.61513 15.5813 1.54915C15.7529 1.48318 15.9277 1.4502 16.1058 1.4502C16.2958 1.4502 16.4769 1.48318 16.6491 1.54915C16.8213 1.61513 16.9796 1.71923 17.1239 1.86147L18.1345 2.8752C18.2796 3.02033 18.3852 3.17985 18.4511 3.35376C18.5171 3.52766 18.5501 3.7046 18.5501 3.88457C18.5501 4.06481 18.517 4.24207 18.4507 4.41637C18.3845 4.59054 18.2791 4.74973 18.1345 4.89395L11.1282 11.9002H8.1001ZM9.5251 10.4752H10.5345L15.1063 5.90332L14.6116 5.38874L14.097 4.89395L9.5251 9.46582V10.4752Z" fill="#232529"/>
</g>
</g>
<defs>
<clipPath id="clip0_4548_2770">
<rect width="19" height="19" fill="white" transform="translate(0.5 0.5)"/>
</clipPath>
</defs>
</svg>
