<svg width="16" height="16" viewBox="0 0 16 16" fill="none" xmlns="http://www.w3.org/2000/svg">
<g clip-path="url(#clip0_6288_15918)">
<path d="M16 8C16 3.58176 12.4182 0 8 0C3.58176 0 0 3.58176 0 8C0 11.7517 2.58304 14.8998 6.06752 15.7645V10.4448H4.41792V8H6.06752V6.94656C6.06752 4.22368 7.29984 2.9616 9.97312 2.9616C10.48 2.9616 11.3546 3.06112 11.7123 3.16032V5.37632C11.5235 5.35648 11.1955 5.34656 10.7882 5.34656C9.47648 5.34656 8.9696 5.84352 8.9696 7.13536V8H11.5827L11.1338 10.4448H8.9696V15.9414C12.9309 15.463 16.0003 12.0902 16.0003 8H16Z" fill="#0866FF"/>
<path d="M11.1333 10.4451L11.5823 8.00031H8.96916V7.13567C8.96916 5.84383 9.47604 5.34687 10.7877 5.34687C11.1951 5.34687 11.5231 5.35679 11.7119 5.37663V3.16063C11.3541 3.06111 10.4796 2.96191 9.97268 2.96191C7.2994 2.96191 6.06708 4.22399 6.06708 6.94687V8.00031H4.41748V10.4451H6.06708V15.7648C6.68596 15.9184 7.33332 16.0003 7.99956 16.0003C8.32756 16.0003 8.65108 15.9802 8.96884 15.9418V10.4451H11.133H11.1333Z" fill="white"/>
</g>
<defs>
<clipPath id="clip0_6288_15918">
<rect width="16" height="16" fill="white"/>
</clipPath>
</defs>
</svg>
