<svg width="10" height="9" viewBox="0 0 10 9" fill="none" xmlns="http://www.w3.org/2000/svg">
<g clip-path="url(#clip0_4628_2901)">
<path d="M2.8496 7.70298V4.42941L0.894043 2.97705V7.01138C0.894043 7.47244 1.13253 7.70298 1.60949 7.70298" fill="#4285F4"/>
<path d="M2.84961 4.44359L5.13109 6.23618L7.41257 4.44359V2.16211L5.13109 3.9547L2.84961 2.16211" fill="#EA4335"/>
<path d="M7.4126 7.70298V4.42941L9.36815 2.97705V7.01138C9.36815 7.47244 9.12967 7.70298 8.65271 7.70298" fill="#34A853"/>
<path d="M0.894043 3.01741L2.8496 4.44359V2.22509L2.13415 1.70442C1.49025 1.22903 0.894043 1.70442 0.894043 2.293" fill="#C5221F"/>
<path d="M9.36815 3.01741L7.4126 4.44359V2.22509L8.12804 1.70442C8.77195 1.22903 9.36815 1.70442 9.36815 2.293" fill="#FBBC04"/>
</g>
<defs>
<clipPath id="clip0_4628_2901">
<rect width="8.8" height="8.8" fill="white" transform="translate(0.730957 0.206543)"/>
</clipPath>
</defs>
</svg>
