<svg width="13" height="12" viewBox="0 0 13 12" fill="none" xmlns="http://www.w3.org/2000/svg">
<circle cx="6.55953" cy="5.87691" r="5.71187" fill="url(#paint0_radial_4628_2765)"/>
<circle cx="6.55953" cy="5.87691" r="5.71187" fill="black" fill-opacity="0.2"/>
<circle cx="6.55953" cy="5.87691" r="5.71187" fill="url(#paint1_radial_4628_2765)"/>
<g clip-path="url(#clip0_4628_2765)">
<g clip-path="url(#clip1_4628_2765)">
<path d="M5.42013 6.16476C5.42013 5.37615 6.05925 4.73668 6.84787 4.73668C7.63648 4.73668 8.27595 5.37615 8.27595 6.16476C8.27595 6.95338 7.63648 7.59285 6.84787 7.59285C6.05925 7.59285 5.42013 6.95338 5.42013 6.16476ZM4.64814 6.16476C4.64814 7.37968 5.63295 8.3645 6.84787 8.3645C8.06278 8.3645 9.0476 7.37968 9.0476 6.16476C9.0476 4.94985 8.06278 3.96503 6.84787 3.96503C5.63295 3.96503 4.64814 4.94985 4.64814 6.16476ZM8.62062 3.87781C8.62058 3.97948 8.65069 4.07888 8.70714 4.16345C8.76359 4.24801 8.84385 4.31393 8.93777 4.35287C9.03169 4.39182 9.13505 4.40204 9.23477 4.38225C9.3345 4.36245 9.42612 4.31353 9.49804 4.24166C9.56996 4.1698 9.61896 4.07822 9.63884 3.97851C9.65871 3.8788 9.64857 3.77543 9.6097 3.68148C9.57083 3.58753 9.50497 3.50722 9.42046 3.4507C9.33594 3.39418 9.23656 3.36399 9.13489 3.36395H9.13469C8.9984 3.36401 8.86771 3.41816 8.77133 3.51451C8.67494 3.61086 8.62074 3.74153 8.62062 3.87781ZM5.11717 9.65176C4.69951 9.63274 4.4725 9.56317 4.32163 9.50439C4.12163 9.42653 3.97892 9.33379 3.82888 9.18396C3.67884 9.03412 3.58597 8.89155 3.50845 8.69155C3.44964 8.54075 3.38007 8.31367 3.36108 7.89601C3.34031 7.44445 3.33616 7.30881 3.33616 6.1648C3.33616 5.02079 3.34065 4.88552 3.36108 4.43359C3.3801 4.01592 3.45018 3.78929 3.50845 3.63805C3.58631 3.43804 3.67905 3.29534 3.82888 3.1453C3.97872 2.99526 4.12128 2.90238 4.32163 2.82486C4.47243 2.76605 4.69951 2.69648 5.11717 2.67749C5.56873 2.65673 5.70437 2.65258 6.84787 2.65258C7.99136 2.65258 8.12715 2.65707 8.57908 2.67749C8.99674 2.69651 9.22338 2.7666 9.37462 2.82486C9.57463 2.90238 9.71733 2.99546 9.86737 3.1453C10.0174 3.29513 10.1099 3.43804 10.1878 3.63805C10.2466 3.78884 10.3162 4.01592 10.3352 4.43359C10.3559 4.88552 10.3601 5.02079 10.3601 6.1648C10.3601 7.30881 10.3559 7.44407 10.3352 7.89601C10.3162 8.31367 10.2462 8.54069 10.1878 8.69155C10.1099 8.89155 10.0172 9.03426 9.86737 9.18396C9.71754 9.33365 9.57463 9.42653 9.37462 9.50439C9.22382 9.5632 8.99674 9.63277 8.57908 9.65176C8.12752 9.67253 7.99188 9.67667 6.84787 9.67667C5.70386 9.67667 5.56859 9.67253 5.11717 9.65176ZM5.0817 1.9068C4.62565 1.92757 4.31403 1.99988 4.04188 2.10578C3.76003 2.21514 3.52143 2.36186 3.28301 2.5999C3.04458 2.83795 2.89825 3.07693 2.78889 3.35877C2.68299 3.63109 2.61068 3.94255 2.58991 4.3986C2.5688 4.85536 2.56396 5.00139 2.56396 6.16476C2.56396 7.32813 2.5688 7.47416 2.58991 7.93093C2.61068 8.38701 2.68299 8.69844 2.78889 8.97075C2.89825 9.25243 3.04462 9.49168 3.28301 9.72962C3.5214 9.96757 3.76003 10.1141 4.04188 10.2237C4.31454 10.3296 4.62565 10.402 5.0817 10.4227C5.53871 10.4435 5.6845 10.4487 6.84787 10.4487C8.01124 10.4487 8.15727 10.4438 8.61404 10.4227C9.07012 10.402 9.38154 10.3296 9.65386 10.2237C9.93554 10.1141 10.1743 9.96767 10.4127 9.72962C10.6512 9.49157 10.7972 9.25243 10.9069 8.97075C11.0127 8.69844 11.0854 8.38698 11.1058 7.93093C11.1266 7.47382 11.1314 7.32813 11.1314 6.16476C11.1314 5.00139 11.1266 4.85536 11.1058 4.3986C11.0851 3.94251 11.0127 3.63092 10.9069 3.35877C10.7972 3.0771 10.6508 2.83833 10.4127 2.5999C10.1747 2.36148 9.93554 2.21514 9.6542 2.10578C9.38154 1.99988 9.07008 1.92723 8.61438 1.9068C8.15761 1.88603 8.01158 1.88086 6.84821 1.88086C5.68484 1.88086 5.53871 1.88569 5.0817 1.9068Z" fill="url(#paint2_radial_4628_2765)"/>
<path d="M5.42013 6.16476C5.42013 5.37615 6.05925 4.73668 6.84787 4.73668C7.63648 4.73668 8.27595 5.37615 8.27595 6.16476C8.27595 6.95338 7.63648 7.59285 6.84787 7.59285C6.05925 7.59285 5.42013 6.95338 5.42013 6.16476ZM4.64814 6.16476C4.64814 7.37968 5.63295 8.3645 6.84787 8.3645C8.06278 8.3645 9.0476 7.37968 9.0476 6.16476C9.0476 4.94985 8.06278 3.96503 6.84787 3.96503C5.63295 3.96503 4.64814 4.94985 4.64814 6.16476ZM8.62062 3.87781C8.62058 3.97948 8.65069 4.07888 8.70714 4.16345C8.76359 4.24801 8.84385 4.31393 8.93777 4.35287C9.03169 4.39182 9.13505 4.40204 9.23477 4.38225C9.3345 4.36245 9.42612 4.31353 9.49804 4.24166C9.56996 4.1698 9.61896 4.07822 9.63884 3.97851C9.65871 3.8788 9.64857 3.77543 9.6097 3.68148C9.57083 3.58753 9.50497 3.50722 9.42046 3.4507C9.33594 3.39418 9.23656 3.36399 9.13489 3.36395H9.13469C8.9984 3.36401 8.86771 3.41816 8.77133 3.51451C8.67494 3.61086 8.62074 3.74153 8.62062 3.87781ZM5.11717 9.65176C4.69951 9.63274 4.4725 9.56317 4.32163 9.50439C4.12163 9.42653 3.97892 9.33379 3.82888 9.18396C3.67884 9.03412 3.58597 8.89155 3.50845 8.69155C3.44964 8.54075 3.38007 8.31367 3.36108 7.89601C3.34031 7.44445 3.33616 7.30881 3.33616 6.1648C3.33616 5.02079 3.34065 4.88552 3.36108 4.43359C3.3801 4.01592 3.45018 3.78929 3.50845 3.63805C3.58631 3.43804 3.67905 3.29534 3.82888 3.1453C3.97872 2.99526 4.12128 2.90238 4.32163 2.82486C4.47243 2.76605 4.69951 2.69648 5.11717 2.67749C5.56873 2.65673 5.70437 2.65258 6.84787 2.65258C7.99136 2.65258 8.12715 2.65707 8.57908 2.67749C8.99674 2.69651 9.22338 2.7666 9.37462 2.82486C9.57463 2.90238 9.71733 2.99546 9.86737 3.1453C10.0174 3.29513 10.1099 3.43804 10.1878 3.63805C10.2466 3.78884 10.3162 4.01592 10.3352 4.43359C10.3559 4.88552 10.3601 5.02079 10.3601 6.1648C10.3601 7.30881 10.3559 7.44407 10.3352 7.89601C10.3162 8.31367 10.2462 8.54069 10.1878 8.69155C10.1099 8.89155 10.0172 9.03426 9.86737 9.18396C9.71754 9.33365 9.57463 9.42653 9.37462 9.50439C9.22382 9.5632 8.99674 9.63277 8.57908 9.65176C8.12752 9.67253 7.99188 9.67667 6.84787 9.67667C5.70386 9.67667 5.56859 9.67253 5.11717 9.65176ZM5.0817 1.9068C4.62565 1.92757 4.31403 1.99988 4.04188 2.10578C3.76003 2.21514 3.52143 2.36186 3.28301 2.5999C3.04458 2.83795 2.89825 3.07693 2.78889 3.35877C2.68299 3.63109 2.61068 3.94255 2.58991 4.3986C2.5688 4.85536 2.56396 5.00139 2.56396 6.16476C2.56396 7.32813 2.5688 7.47416 2.58991 7.93093C2.61068 8.38701 2.68299 8.69844 2.78889 8.97075C2.89825 9.25243 3.04462 9.49168 3.28301 9.72962C3.5214 9.96757 3.76003 10.1141 4.04188 10.2237C4.31454 10.3296 4.62565 10.402 5.0817 10.4227C5.53871 10.4435 5.6845 10.4487 6.84787 10.4487C8.01124 10.4487 8.15727 10.4438 8.61404 10.4227C9.07012 10.402 9.38154 10.3296 9.65386 10.2237C9.93554 10.1141 10.1743 9.96767 10.4127 9.72962C10.6512 9.49157 10.7972 9.25243 10.9069 8.97075C11.0127 8.69844 11.0854 8.38698 11.1058 7.93093C11.1266 7.47382 11.1314 7.32813 11.1314 6.16476C11.1314 5.00139 11.1266 4.85536 11.1058 4.3986C11.0851 3.94251 11.0127 3.63092 10.9069 3.35877C10.7972 3.0771 10.6508 2.83833 10.4127 2.5999C10.1747 2.36148 9.93554 2.21514 9.6542 2.10578C9.38154 1.99988 9.07008 1.92723 8.61438 1.9068C8.15761 1.88603 8.01158 1.88086 6.84821 1.88086C5.68484 1.88086 5.53871 1.88569 5.0817 1.9068Z" fill="black" fill-opacity="0.2"/>
<path d="M5.42013 6.16476C5.42013 5.37615 6.05925 4.73668 6.84787 4.73668C7.63648 4.73668 8.27595 5.37615 8.27595 6.16476C8.27595 6.95338 7.63648 7.59285 6.84787 7.59285C6.05925 7.59285 5.42013 6.95338 5.42013 6.16476ZM4.64814 6.16476C4.64814 7.37968 5.63295 8.3645 6.84787 8.3645C8.06278 8.3645 9.0476 7.37968 9.0476 6.16476C9.0476 4.94985 8.06278 3.96503 6.84787 3.96503C5.63295 3.96503 4.64814 4.94985 4.64814 6.16476ZM8.62062 3.87781C8.62058 3.97948 8.65069 4.07888 8.70714 4.16345C8.76359 4.24801 8.84385 4.31393 8.93777 4.35287C9.03169 4.39182 9.13505 4.40204 9.23477 4.38225C9.3345 4.36245 9.42612 4.31353 9.49804 4.24166C9.56996 4.1698 9.61896 4.07822 9.63884 3.97851C9.65871 3.8788 9.64857 3.77543 9.6097 3.68148C9.57083 3.58753 9.50497 3.50722 9.42046 3.4507C9.33594 3.39418 9.23656 3.36399 9.13489 3.36395H9.13469C8.9984 3.36401 8.86771 3.41816 8.77133 3.51451C8.67494 3.61086 8.62074 3.74153 8.62062 3.87781ZM5.11717 9.65176C4.69951 9.63274 4.4725 9.56317 4.32163 9.50439C4.12163 9.42653 3.97892 9.33379 3.82888 9.18396C3.67884 9.03412 3.58597 8.89155 3.50845 8.69155C3.44964 8.54075 3.38007 8.31367 3.36108 7.89601C3.34031 7.44445 3.33616 7.30881 3.33616 6.1648C3.33616 5.02079 3.34065 4.88552 3.36108 4.43359C3.3801 4.01592 3.45018 3.78929 3.50845 3.63805C3.58631 3.43804 3.67905 3.29534 3.82888 3.1453C3.97872 2.99526 4.12128 2.90238 4.32163 2.82486C4.47243 2.76605 4.69951 2.69648 5.11717 2.67749C5.56873 2.65673 5.70437 2.65258 6.84787 2.65258C7.99136 2.65258 8.12715 2.65707 8.57908 2.67749C8.99674 2.69651 9.22338 2.7666 9.37462 2.82486C9.57463 2.90238 9.71733 2.99546 9.86737 3.1453C10.0174 3.29513 10.1099 3.43804 10.1878 3.63805C10.2466 3.78884 10.3162 4.01592 10.3352 4.43359C10.3559 4.88552 10.3601 5.02079 10.3601 6.1648C10.3601 7.30881 10.3559 7.44407 10.3352 7.89601C10.3162 8.31367 10.2462 8.54069 10.1878 8.69155C10.1099 8.89155 10.0172 9.03426 9.86737 9.18396C9.71754 9.33365 9.57463 9.42653 9.37462 9.50439C9.22382 9.5632 8.99674 9.63277 8.57908 9.65176C8.12752 9.67253 7.99188 9.67667 6.84787 9.67667C5.70386 9.67667 5.56859 9.67253 5.11717 9.65176ZM5.0817 1.9068C4.62565 1.92757 4.31403 1.99988 4.04188 2.10578C3.76003 2.21514 3.52143 2.36186 3.28301 2.5999C3.04458 2.83795 2.89825 3.07693 2.78889 3.35877C2.68299 3.63109 2.61068 3.94255 2.58991 4.3986C2.5688 4.85536 2.56396 5.00139 2.56396 6.16476C2.56396 7.32813 2.5688 7.47416 2.58991 7.93093C2.61068 8.38701 2.68299 8.69844 2.78889 8.97075C2.89825 9.25243 3.04462 9.49168 3.28301 9.72962C3.5214 9.96757 3.76003 10.1141 4.04188 10.2237C4.31454 10.3296 4.62565 10.402 5.0817 10.4227C5.53871 10.4435 5.6845 10.4487 6.84787 10.4487C8.01124 10.4487 8.15727 10.4438 8.61404 10.4227C9.07012 10.402 9.38154 10.3296 9.65386 10.2237C9.93554 10.1141 10.1743 9.96767 10.4127 9.72962C10.6512 9.49157 10.7972 9.25243 10.9069 8.97075C11.0127 8.69844 11.0854 8.38698 11.1058 7.93093C11.1266 7.47382 11.1314 7.32813 11.1314 6.16476C11.1314 5.00139 11.1266 4.85536 11.1058 4.3986C11.0851 3.94251 11.0127 3.63092 10.9069 3.35877C10.7972 3.0771 10.6508 2.83833 10.4127 2.5999C10.1747 2.36148 9.93554 2.21514 9.6542 2.10578C9.38154 1.99988 9.07008 1.92723 8.61438 1.9068C8.15761 1.88603 8.01158 1.88086 6.84821 1.88086C5.68484 1.88086 5.53871 1.88569 5.0817 1.9068Z" fill="white"/>
</g>
</g>
<defs>
<radialGradient id="paint0_radial_4628_2765" cx="0" cy="0" r="1" gradientUnits="userSpaceOnUse" gradientTransform="translate(2.36543 11.6427) scale(14.9133 14.9127)">
<stop offset="0.09" stop-color="#FA8F21"/>
<stop offset="0.78" stop-color="#D82D7E"/>
</radialGradient>
<radialGradient id="paint1_radial_4628_2765" cx="0" cy="0" r="1" gradientUnits="userSpaceOnUse" gradientTransform="translate(7.77593 12.1545) scale(11.7538 11.7533)">
<stop offset="0.64" stop-color="#8C3AAA" stop-opacity="0"/>
<stop offset="1" stop-color="#8C3AAA"/>
</radialGradient>
<radialGradient id="paint2_radial_4628_2765" cx="0" cy="0" r="1" gradientUnits="userSpaceOnUse" gradientTransform="translate(3.70225 10.4891) scale(11.1846)">
<stop offset="0.09" stop-color="#FA8F21"/>
<stop offset="0.78" stop-color="#D82D7E"/>
</radialGradient>
<clipPath id="clip0_4628_2765">
<rect width="8.56781" height="8.56781" fill="white" transform="translate(2.56348 1.88086)"/>
</clipPath>
<clipPath id="clip1_4628_2765">
<rect width="8.56781" height="8.56781" fill="white" transform="translate(2.56348 1.88086)"/>
</clipPath>
</defs>
</svg>
