<svg width="9" height="10" viewBox="0 0 9 10" fill="none" xmlns="http://www.w3.org/2000/svg">
<g clip-path="url(#clip0_4628_3083)">
<path fill-rule="evenodd" clip-rule="evenodd" d="M3.45482 0.959473C2.9812 0.959822 2.5979 1.34341 2.59825 1.81608C2.5979 2.28875 2.98155 2.67234 3.45517 2.67268H4.31209V1.81643C4.31244 1.34376 3.92879 0.960171 3.45482 0.959473C3.45517 0.959473 3.45517 0.959473 3.45482 0.959473ZM3.45482 3.24422H1.1704C0.696782 3.24457 0.313127 3.62816 0.313478 4.10083C0.312777 4.5735 0.696431 4.95708 1.17005 4.95778H3.45482C3.92844 4.95743 4.31209 4.57385 4.31174 4.10118C4.31209 3.62816 3.92844 3.24457 3.45482 3.24422Z" fill="#36C5F0"/>
<path fill-rule="evenodd" clip-rule="evenodd" d="M8.88108 4.10083C8.88143 3.62816 8.49777 3.24457 8.02416 3.24422C7.55054 3.24457 7.16689 3.62816 7.16724 4.10083V4.95778H8.02416C8.49777 4.95743 8.88143 4.57385 8.88108 4.10083ZM6.5963 4.10083V1.81608C6.59666 1.34376 6.21335 0.960171 5.73973 0.959473C5.26612 0.959822 4.88246 1.34341 4.88281 1.81608V4.10083C4.88211 4.5735 5.26577 4.95708 5.73938 4.95778C6.213 4.95743 6.59666 4.57385 6.5963 4.10083Z" fill="#2EB67D"/>
<path fill-rule="evenodd" clip-rule="evenodd" d="M5.73973 9.52747C6.21335 9.52712 6.597 9.14353 6.59665 8.67086C6.597 8.19819 6.21335 7.81461 5.73973 7.81426H4.88281V8.67086C4.88246 9.14318 5.26612 9.52677 5.73973 9.52747ZM5.73973 7.24237H8.02451C8.49812 7.24202 8.88178 6.85843 8.88143 6.38576C8.88213 5.91309 8.49847 5.52951 8.02486 5.52881H5.74008C5.26647 5.52916 4.88281 5.91274 4.88316 6.38541C4.88281 6.85843 5.26612 7.24202 5.73973 7.24237Z" fill="#ECB22E"/>
<path fill-rule="evenodd" clip-rule="evenodd" d="M0.313477 6.38541C0.313127 6.85809 0.696781 7.24167 1.1704 7.24202C1.64401 7.24167 2.02767 6.85809 2.02732 6.38541V5.52881H1.1704C0.696781 5.52916 0.313127 5.91274 0.313477 6.38541ZM2.59825 6.38541V8.67016C2.59755 9.14283 2.9812 9.52642 3.45482 9.52712C3.92844 9.52677 4.31209 9.14318 4.31174 8.67051V6.38611C4.31244 5.91344 3.92879 5.52986 3.45517 5.52916C2.9812 5.52916 2.5979 5.91274 2.59825 6.38541Z" fill="#E01E5A"/>
</g>
<defs>
<clipPath id="clip0_4628_3083">
<rect width="8.56781" height="8.56781" fill="white" transform="translate(0.313477 0.959473)"/>
</clipPath>
</defs>
</svg>
