<svg width="10" height="9" viewBox="0 0 10 9" fill="none" xmlns="http://www.w3.org/2000/svg">
<path d="M0.84668 8.89005L1.44892 6.68992C1.0773 6.04591 0.882022 5.31586 0.882379 4.56725C0.88345 2.22681 2.788 0.322266 5.12807 0.322266C6.26366 0.322623 7.32964 0.764935 8.13144 1.56745C8.93289 2.36997 9.37413 3.43666 9.37377 4.57117C9.3727 6.91197 7.46815 8.81651 5.12807 8.81651C4.41766 8.81616 3.7176 8.63802 3.09751 8.29959L0.84668 8.89005ZM3.20175 7.53099C3.80007 7.88619 4.37125 8.09896 5.12665 8.09932C7.07153 8.09932 8.65586 6.51642 8.65693 4.57046C8.65765 2.62057 7.08082 1.03982 5.1295 1.0391C3.18319 1.0391 1.59993 2.622 1.59922 4.5676C1.59886 5.36191 1.83162 5.95666 2.22252 6.57889L1.86589 7.8812L3.20175 7.53099ZM7.26681 5.58039C7.24039 5.53612 7.16971 5.5097 7.06332 5.45651C6.9573 5.40332 6.43573 5.14664 6.33827 5.1113C6.24117 5.07596 6.17049 5.05811 6.09945 5.16449C6.02876 5.27052 5.82528 5.5097 5.76352 5.58039C5.70176 5.65107 5.63964 5.66 5.53362 5.60681C5.42759 5.55361 5.08559 5.44188 4.68041 5.08024C4.36518 4.79893 4.15206 4.45158 4.0903 4.3452C4.02854 4.23917 4.08388 4.1817 4.13671 4.12886C4.18455 4.08138 4.24274 4.00499 4.29593 3.94287C4.34983 3.88147 4.36733 3.8372 4.40303 3.76616C4.43837 3.69548 4.42088 3.63336 4.3941 3.58017C4.36733 3.52733 4.15527 3.00505 4.0671 2.79264C3.98071 2.58595 3.89324 2.61379 3.82827 2.61058L3.62478 2.60701C3.5541 2.60701 3.43915 2.63343 3.34205 2.73981C3.24495 2.84619 2.97078 3.10251 2.97078 3.62479C2.97078 4.14707 3.35097 4.6515 3.40381 4.72218C3.457 4.79287 4.1517 5.86455 5.21589 6.324C5.469 6.43324 5.66677 6.49857 5.82064 6.54748C6.07482 6.62816 6.30615 6.61673 6.48893 6.5896C6.69277 6.55926 7.11652 6.33293 7.20505 6.08517C7.29358 5.83707 7.29358 5.62466 7.26681 5.58039Z" fill="#25D366"/>
</svg>
